<?xml version="1.0" encoding="utf-8"?>
<!-- Generator: Adobe Illustrator 27.5.0, SVG Export Plug-In . SVG Version: 6.00 Build 0)  -->
<svg version="1.1" xmlns="http://www.w3.org/2000/svg" xmlns:xlink="http://www.w3.org/1999/xlink" x="0px" y="0px"
	 viewBox="0 0 3710 3710" style="enable-background:new 0 0 3710 3710;" xml:space="preserve">
<g id="Background">
	<g>
		<g>
			<rect style="fill:#FFFFFF;" width="3710" height="3710"/>
		</g>
	</g>
</g>
<g id="Illustration">
	<g>
		<linearGradient id="SVGID_1_" gradientUnits="userSpaceOnUse" x1="3440.0452" y1="3271.6907" x2="1373.2654" y2="1463.2596">
			<stop  offset="0" style="stop-color:#DAE3FE"/>
			<stop  offset="1" style="stop-color:#E9EFFD"/>
		</linearGradient>
		<path style="fill:url(#SVGID_1_);" d="M3088.8,2332.492c-267.111,628.939-978.634,981.275-1595.667,886.234
			c-100.404-15.466-375.664-61.533-619.368-278.867c-469.147-418.384-569.478-1246.839-191.031-1830.672
			c275.443-424.927,769.203-665.804,1238.372-653.755c101.059,2.595,488.359,18.59,828.728,299.252
			c49.994,41.224,160.26,139.182,259.635,294.588C3242.822,1414.191,3262.88,1922.604,3088.8,2332.492z"/>
		<g>
			<g>
				<path style="fill:#91B3FA;" d="M2440.3,1931.571c0,0-7.519-316.105,138.077-400.709
					c145.594-84.604,422.422-137.498,432.798-591.395c6.075-265.732,12.65-381.914,17.057-432.574
					c1.719-19.762-15.842-35.713-35.335-32.041c-137.89,25.976-585.836,132.896-679.752,438.64
					C2201.808,1275.953,2440.3,1931.571,2440.3,1931.571z"/>
				<path style="fill:#7D97F4;" d="M2886.257,601.14c-151.362,134.994-326.385,373.905-419.674,612.817
					c-11.975,39.374-47.002,123.107-62.213,271.879c-13.586,124.078-6.832,255.191,9.642,341.982
					c1.042,5.487,6.334,9.091,11.821,8.049c9.435-1.79,8.18-11.937,8.095-11.617c-18.814-148.283-11.004-332.847,32.105-499.377
					c55.076-204.479,177.918-402.73,304.976-570.874l13.075-16.557c98.439-126.42,119.163-127.351,109.96-136.163
					C2891.87,599.196,2888.468,599.177,2886.257,601.14z"/>
			</g>
			<g>
				<path style="fill:#BDD0FB;" d="M2185.33,2155.828c-20.963,6.471,223.103-217.51,350.355-609.685
					c59.964-184.803,97.82-422.226,220.23-496.711c101.878-61.992,400.084,34.334,497.256,68.392
					c12.142,4.255,13.86,20.713,2.838,27.352c-54.339,32.727-171.975,111.585-213.83,203.158
					c-55.169,120.701-187.877,182.073-298.771,186.855c-110.894,4.781-174.002,16.443-253.468,180.046
					C2410.475,1878.838,2244.894,2137.44,2185.33,2155.828z"/>
				<path style="fill:#91B3FA;" d="M3104.035,1148.973c-128.498-14.791-274.712,21.825-361.479,120.086l-8.208,9.388
					c-19.014,22.049-132.332,182.237-202.766,318.732c-0.877,1.702-0.21,3.793,1.491,4.671c2.89,1.491,4.947-1.624,4.61-1.374
					c46.078-76.117,110.097-171.739,160.292-242.879c54.059-77.741,91.59-130.245,193.222-170.174
					c112.808-42.473,212.673-32.923,212.367-32.909c1.534,0.084,2.846-1.091,2.929-2.625
					C3106.574,1150.414,3105.482,1149.143,3104.035,1148.973z"/>
			</g>
		</g>
		<g>
			<g>
				
					<linearGradient id="SVGID_00000141440733772615423170000010915136078211334052_" gradientUnits="userSpaceOnUse" x1="3307.4446" y1="1012.9453" x2="2591.3818" y2="2757.9146">
					<stop  offset="0" style="stop-color:#FF928E"/>
					<stop  offset="1" style="stop-color:#FE7062"/>
				</linearGradient>
				<path style="fill:url(#SVGID_00000141440733772615423170000010915136078211334052_);" d="M3157.069,2906.103h-762.813V1679.291
					h782.565V2886.35C3176.821,2897.259,3167.978,2906.103,3157.069,2906.103z"/>
				<g>
					
						<linearGradient id="SVGID_00000127030607276499855300000010335610557969981883_" gradientUnits="userSpaceOnUse" x1="2987.5044" y1="2421.0742" x2="1991.9741" y2="3227.489">
						<stop  offset="0" style="stop-color:#FF928E"/>
						<stop  offset="1" style="stop-color:#FE7062"/>
					</linearGradient>
					
						<rect x="3113.423" y="1674.32" style="fill:url(#SVGID_00000127030607276499855300000010335610557969981883_);" width="80.374" height="1224.406"/>
					
						<linearGradient id="SVGID_00000066476282347577065510000002780474321611280820_" gradientUnits="userSpaceOnUse" x1="2977.8379" y1="2804.0181" x2="4737.3447" y2="1647.3058">
						<stop  offset="0" style="stop-color:#FF928E"/>
						<stop  offset="1" style="stop-color:#FE7062"/>
					</linearGradient>
					<path style="fill:url(#SVGID_00000066476282347577065510000002780474321611280820_);" d="M3194.335,2907.704h-76.493
						c-7.917,0-14.335-6.418-14.335-14.335V2480.3c0-7.917,6.418-14.335,14.335-14.335h76.493c7.917,0,14.335,6.418,14.335,14.335
						v413.068C3208.671,2901.286,3202.253,2907.704,3194.335,2907.704z"/>
					
						<linearGradient id="SVGID_00000052065613128152509560000000230534098598652061_" gradientUnits="userSpaceOnUse" x1="3058.3196" y1="2917.9033" x2="4757.2075" y2="1801.0424">
						<stop  offset="0" style="stop-color:#FF928E"/>
						<stop  offset="1" style="stop-color:#FE7062"/>
					</linearGradient>
					<path style="fill:url(#SVGID_00000052065613128152509560000000230534098598652061_);" d="M3218.927,2920.274h-114.824
						c-3.979,0-7.206-3.226-7.206-7.206v-126.011c0-3.979,3.226-7.206,7.206-7.206h114.824c3.979,0,7.206,3.226,7.206,7.206v126.011
						C3226.132,2917.048,3222.906,2920.274,3218.927,2920.274z"/>
				</g>
				<g style="opacity:0.89;">
					<path style="fill:#FFFFFF;" d="M2651.687,2038.274h105.937c0.62,0,1.123-0.503,1.123-1.123v-192.348
						c0-0.62-0.503-1.123-1.123-1.123h-105.937c-0.62,0-1.123,0.503-1.123,1.123v192.348
						C2650.564,2037.772,2651.067,2038.274,2651.687,2038.274z"/>
					<g>
						
							<linearGradient id="SVGID_00000096026303869949359670000001994742195917809832_" gradientUnits="userSpaceOnUse" x1="2743.2681" y1="1773.0907" x2="2716.5918" y2="2107.0369">
							<stop  offset="0" style="stop-color:#FF928E"/>
							<stop  offset="1" style="stop-color:#FE7062"/>
						</linearGradient>
						<path style="fill:url(#SVGID_00000096026303869949359670000001994742195917809832_);" d="M2709.48,2027.756h40.754
							c0.345,0,0.624-0.279,0.624-0.624v-172.309c0-0.345-0.28-0.624-0.624-0.624h-40.754c-0.345,0-0.624,0.279-0.624,0.624v172.309
							C2708.856,2027.476,2709.135,2027.756,2709.48,2027.756z"/>
						
							<linearGradient id="SVGID_00000181088104983119174510000011787188297094860180_" gradientUnits="userSpaceOnUse" x1="2693.2363" y1="1768.4382" x2="2666.5601" y2="2102.3845">
							<stop  offset="0" style="stop-color:#FF928E"/>
							<stop  offset="1" style="stop-color:#FE7062"/>
						</linearGradient>
						<path style="fill:url(#SVGID_00000181088104983119174510000011787188297094860180_);" d="M2659.076,2027.756h40.754
							c0.345,0,0.624-0.279,0.624-0.624v-172.309c0-0.345-0.28-0.624-0.624-0.624h-40.754c-0.345,0-0.624,0.279-0.624,0.624v172.309
							C2658.452,2027.476,2658.732,2027.756,2659.076,2027.756z"/>
					</g>
					<rect x="2650.564" y="1908.562" style="fill:#FFFFFF;" width="107.057" height="5.552"/>
					<rect x="2650.564" y="1968.687" style="fill:#FFFFFF;" width="107.057" height="5.552"/>
				</g>
				<g style="opacity:0.89;">
					<path style="fill:#FFFFFF;" d="M2652.582,2331.66h105.937c0.62,0,1.123-0.503,1.123-1.123v-192.348
						c0-0.62-0.503-1.123-1.123-1.123h-105.937c-0.62,0-1.123,0.503-1.123,1.123v192.348
						C2651.459,2331.157,2651.962,2331.66,2652.582,2331.66z"/>
					<g>
						
							<linearGradient id="SVGID_00000083046749315211057660000002567378216710700691_" gradientUnits="userSpaceOnUse" x1="2744.1631" y1="2066.4763" x2="2717.4868" y2="2400.4226">
							<stop  offset="0" style="stop-color:#FF928E"/>
							<stop  offset="1" style="stop-color:#FE7062"/>
						</linearGradient>
						<path style="fill:url(#SVGID_00000083046749315211057660000002567378216710700691_);" d="M2710.375,2321.142h40.754
							c0.345,0,0.624-0.28,0.624-0.624v-172.309c0-0.345-0.28-0.624-0.624-0.624h-40.754c-0.345,0-0.624,0.28-0.624,0.624v172.309
							C2709.75,2320.862,2710.03,2321.142,2710.375,2321.142z"/>
						
							<linearGradient id="SVGID_00000033337482705087000000000012783485727272983182_" gradientUnits="userSpaceOnUse" x1="2694.1313" y1="2061.8237" x2="2667.4551" y2="2395.7703">
							<stop  offset="0" style="stop-color:#FF928E"/>
							<stop  offset="1" style="stop-color:#FE7062"/>
						</linearGradient>
						<path style="fill:url(#SVGID_00000033337482705087000000000012783485727272983182_);" d="M2659.971,2321.142h40.754
							c0.345,0,0.624-0.28,0.624-0.624v-172.309c0-0.345-0.28-0.624-0.624-0.624h-40.754c-0.345,0-0.624,0.28-0.624,0.624v172.309
							C2659.347,2320.862,2659.627,2321.142,2659.971,2321.142z"/>
					</g>
					<rect x="2651.459" y="2201.948" style="fill:#FFFFFF;" width="107.057" height="5.552"/>
					<rect x="2651.459" y="2262.072" style="fill:#FFFFFF;" width="107.057" height="5.552"/>
				</g>
				<g style="opacity:0.89;">
					<path style="fill:#FFFFFF;" d="M2653.477,2641.19h105.937c0.62,0,1.123-0.503,1.123-1.123v-192.348
						c0-0.62-0.503-1.123-1.123-1.123h-105.937c-0.62,0-1.123,0.503-1.123,1.123v192.348
						C2652.354,2640.687,2652.857,2641.19,2653.477,2641.19z"/>
					<g>
						
							<linearGradient id="SVGID_00000103234007630689915560000004653633309176738445_" gradientUnits="userSpaceOnUse" x1="2745.0581" y1="2376.0061" x2="2718.3818" y2="2709.9526">
							<stop  offset="0" style="stop-color:#FF928E"/>
							<stop  offset="1" style="stop-color:#FE7062"/>
						</linearGradient>
						<path style="fill:url(#SVGID_00000103234007630689915560000004653633309176738445_);" d="M2711.27,2630.671h40.754
							c0.345,0,0.624-0.279,0.624-0.624v-172.309c0-0.345-0.279-0.624-0.624-0.624h-40.754c-0.345,0-0.624,0.28-0.624,0.624v172.309
							C2710.646,2630.392,2710.925,2630.671,2711.27,2630.671z"/>
						
							<linearGradient id="SVGID_00000002376720901263792660000001106269045416494237_" gradientUnits="userSpaceOnUse" x1="2695.0264" y1="2371.3538" x2="2668.3499" y2="2705.3003">
							<stop  offset="0" style="stop-color:#FF928E"/>
							<stop  offset="1" style="stop-color:#FE7062"/>
						</linearGradient>
						<path style="fill:url(#SVGID_00000002376720901263792660000001106269045416494237_);" d="M2660.866,2630.671h40.754
							c0.345,0,0.624-0.279,0.624-0.624v-172.309c0-0.345-0.28-0.624-0.624-0.624h-40.754c-0.345,0-0.624,0.28-0.624,0.624v172.309
							C2660.242,2630.392,2660.521,2630.671,2660.866,2630.671z"/>
					</g>
					<rect x="2652.354" y="2511.477" style="fill:#FFFFFF;" width="107.057" height="5.552"/>
					<rect x="2652.354" y="2571.602" style="fill:#FFFFFF;" width="107.057" height="5.552"/>
				</g>
				<g style="opacity:0.89;">
					<path style="fill:#FFFFFF;" d="M2916.437,2035.16h105.937c0.62,0,1.123-0.503,1.123-1.123v-192.348
						c0-0.62-0.503-1.123-1.123-1.123h-105.937c-0.62,0-1.123,0.503-1.123,1.123v192.348
						C2915.314,2034.657,2915.816,2035.16,2916.437,2035.16z"/>
					<g>
						
							<linearGradient id="SVGID_00000174584322202613699140000007457001757686569657_" gradientUnits="userSpaceOnUse" x1="3008.0178" y1="1769.9762" x2="2981.3413" y2="2103.9226">
							<stop  offset="0" style="stop-color:#FF928E"/>
							<stop  offset="1" style="stop-color:#FE7062"/>
						</linearGradient>
						<path style="fill:url(#SVGID_00000174584322202613699140000007457001757686569657_);" d="M2974.229,2024.641h40.754
							c0.345,0,0.624-0.279,0.624-0.624v-172.309c0-0.345-0.279-0.624-0.624-0.624h-40.754c-0.345,0-0.624,0.279-0.624,0.624
							v172.309C2973.605,2024.362,2973.885,2024.641,2974.229,2024.641z"/>
						
							<linearGradient id="SVGID_00000023253581527813346720000017757268060557393840_" gradientUnits="userSpaceOnUse" x1="2957.9858" y1="1765.3239" x2="2931.3096" y2="2099.2703">
							<stop  offset="0" style="stop-color:#FF928E"/>
							<stop  offset="1" style="stop-color:#FE7062"/>
						</linearGradient>
						<path style="fill:url(#SVGID_00000023253581527813346720000017757268060557393840_);" d="M2923.826,2024.641h40.754
							c0.345,0,0.624-0.279,0.624-0.624v-172.309c0-0.345-0.279-0.624-0.624-0.624h-40.754c-0.345,0-0.624,0.279-0.624,0.624
							v172.309C2923.202,2024.362,2923.481,2024.641,2923.826,2024.641z"/>
					</g>
					<rect x="2915.314" y="1905.448" style="fill:#FFFFFF;" width="107.057" height="5.552"/>
					<rect x="2915.314" y="1965.572" style="fill:#FFFFFF;" width="107.057" height="5.552"/>
				</g>
				<g style="opacity:0.89;">
					<path style="fill:#FFFFFF;" d="M2917.332,2331.851h105.937c0.62,0,1.123-0.503,1.123-1.123V2138.38
						c0-0.62-0.503-1.123-1.123-1.123h-105.937c-0.62,0-1.123,0.503-1.123,1.123v192.348
						C2916.208,2331.348,2916.711,2331.851,2917.332,2331.851z"/>
					<g>
						
							<linearGradient id="SVGID_00000093858473931093041910000004551907980342283959_" gradientUnits="userSpaceOnUse" x1="3008.9126" y1="2066.6672" x2="2982.2363" y2="2400.6135">
							<stop  offset="0" style="stop-color:#FF928E"/>
							<stop  offset="1" style="stop-color:#FE7062"/>
						</linearGradient>
						<path style="fill:url(#SVGID_00000093858473931093041910000004551907980342283959_);" d="M2975.124,2321.333h40.755
							c0.344,0,0.624-0.28,0.624-0.624v-172.309c0-0.345-0.28-0.624-0.624-0.624h-40.755c-0.345,0-0.624,0.28-0.624,0.624v172.309
							C2974.5,2321.053,2974.78,2321.333,2975.124,2321.333z"/>
						
							<linearGradient id="SVGID_00000054241855900108027910000002384718230047329190_" gradientUnits="userSpaceOnUse" x1="2958.8809" y1="2062.0146" x2="2932.2046" y2="2395.9612">
							<stop  offset="0" style="stop-color:#FF928E"/>
							<stop  offset="1" style="stop-color:#FE7062"/>
						</linearGradient>
						<path style="fill:url(#SVGID_00000054241855900108027910000002384718230047329190_);" d="M2924.721,2321.333h40.754
							c0.345,0,0.624-0.28,0.624-0.624v-172.309c0-0.345-0.28-0.624-0.624-0.624h-40.754c-0.345,0-0.624,0.28-0.624,0.624v172.309
							C2924.097,2321.053,2924.376,2321.333,2924.721,2321.333z"/>
					</g>
					<rect x="2916.208" y="2202.138" style="fill:#FFFFFF;" width="107.057" height="5.552"/>
					<rect x="2916.208" y="2262.263" style="fill:#FFFFFF;" width="107.057" height="5.552"/>
				</g>
				<g style="opacity:0.89;">
					<path style="fill:#FFFFFF;" d="M2918.227,2641.381h105.937c0.62,0,1.123-0.503,1.123-1.123V2447.91
						c0-0.62-0.503-1.123-1.123-1.123h-105.937c-0.62,0-1.123,0.503-1.123,1.123v192.348
						C2917.104,2640.878,2917.606,2641.381,2918.227,2641.381z"/>
					<g>
						
							<linearGradient id="SVGID_00000046341665323819210140000008322778186025224077_" gradientUnits="userSpaceOnUse" x1="3009.8076" y1="2376.197" x2="2983.1313" y2="2710.1436">
							<stop  offset="0" style="stop-color:#FF928E"/>
							<stop  offset="1" style="stop-color:#FE7062"/>
						</linearGradient>
						<path style="fill:url(#SVGID_00000046341665323819210140000008322778186025224077_);" d="M2976.019,2630.862h40.754
							c0.345,0,0.624-0.279,0.624-0.624v-172.309c0-0.345-0.28-0.624-0.624-0.624h-40.754c-0.345,0-0.624,0.28-0.624,0.624v172.309
							C2975.395,2630.583,2975.675,2630.862,2976.019,2630.862z"/>
						
							<linearGradient id="SVGID_00000035512281700555477430000011637928869445285785_" gradientUnits="userSpaceOnUse" x1="2959.7759" y1="2371.5447" x2="2933.0996" y2="2705.4912">
							<stop  offset="0" style="stop-color:#FF928E"/>
							<stop  offset="1" style="stop-color:#FE7062"/>
						</linearGradient>
						<path style="fill:url(#SVGID_00000035512281700555477430000011637928869445285785_);" d="M2925.616,2630.862h40.754
							c0.345,0,0.624-0.279,0.624-0.624v-172.309c0-0.345-0.279-0.624-0.624-0.624h-40.754c-0.345,0-0.624,0.28-0.624,0.624v172.309
							C2924.992,2630.583,2925.271,2630.862,2925.616,2630.862z"/>
					</g>
					<rect x="2917.104" y="2511.668" style="fill:#FFFFFF;" width="107.057" height="5.552"/>
					<rect x="2917.104" y="2571.793" style="fill:#FFFFFF;" width="107.057" height="5.552"/>
				</g>
				
					<linearGradient id="SVGID_00000062186796569498535670000012587742451742287525_" gradientUnits="userSpaceOnUse" x1="3534.4419" y1="2026.309" x2="1682.299" y2="922.8014">
					<stop  offset="0" style="stop-color:#E1473D"/>
					<stop  offset="1" style="stop-color:#E9605A"/>
				</linearGradient>
				<path style="fill:url(#SVGID_00000062186796569498535670000012587742451742287525_);" d="M3259.672,1723.034h-816.745
					l-443.962-311.672h1085.834l207.047,285.53C3302.748,1709.087,3285.583,1723.034,3259.672,1723.034z"/>
				
					<linearGradient id="SVGID_00000047772166412071833700000001174723641199985546_" gradientUnits="userSpaceOnUse" x1="2577.5798" y1="1313.8909" x2="2946.0417" y2="257.1727">
					<stop  offset="0" style="stop-color:#E1473D"/>
					<stop  offset="1" style="stop-color:#E9605A"/>
				</linearGradient>
				<path style="fill:url(#SVGID_00000047772166412071833700000001174723641199985546_);" d="M3089.111,1426.584l-1061.327,15.25
					l-28.242-49.897l1015.181-9.694c38.081,0,68.951,12.058,68.951,26.932L3089.111,1426.584z"/>
			</g>
			<g>
				
					<linearGradient id="SVGID_00000111892691605985139910000005627550908378734755_" gradientUnits="userSpaceOnUse" x1="-7018.4956" y1="970.4685" x2="-7094.5933" y2="3790.564" gradientTransform="matrix(-1 0 0 1 -6129.7236 0)">
					<stop  offset="0" style="stop-color:#FF928E"/>
					<stop  offset="1" style="stop-color:#FE7062"/>
				</linearGradient>
				<path style="fill:url(#SVGID_00000111892691605985139910000005627550908378734755_);" d="M552.931,2915.817h762.813V1689.823
					H533.179v1206.241C533.179,2906.973,542.022,2915.817,552.931,2915.817z"/>
				<g>
					
						<linearGradient id="SVGID_00000013171239975981578300000009924824816061607811_" gradientUnits="userSpaceOnUse" x1="-6853.4175" y1="2437.3555" x2="-7856.1357" y2="3249.5928" gradientTransform="matrix(-1 0 0 1 -6129.7236 0)">
						<stop  offset="0" style="stop-color:#FF928E"/>
						<stop  offset="1" style="stop-color:#FE7062"/>
					</linearGradient>
					<polygon style="fill:url(#SVGID_00000013171239975981578300000009924824816061607811_);" points="516.202,2918.814 
						596.576,2918.814 596.576,1684.851 516.202,1684.851 					"/>
					
						<linearGradient id="SVGID_00000027582309912683304410000017160309120356809631_" gradientUnits="userSpaceOnUse" x1="-6865.687" y1="2824.9521" x2="-5068.6475" y2="1643.5658" gradientTransform="matrix(-1 0 0 1 -6129.7236 0)">
						<stop  offset="0" style="stop-color:#FF928E"/>
						<stop  offset="1" style="stop-color:#FE7062"/>
					</linearGradient>
					<path style="fill:url(#SVGID_00000027582309912683304410000017160309120356809631_);" d="M509.269,2927.862h89.281
						c4.386,0,7.941-3.555,7.941-7.941v-429.304c0-4.386-3.555-7.941-7.941-7.941h-89.281c-4.386,0-7.941,3.555-7.941,7.941v429.304
						C501.328,2924.307,504.884,2927.862,509.269,2927.862z"/>
					
						<linearGradient id="SVGID_00000149356125852224957090000003453663025944611737_" gradientUnits="userSpaceOnUse" x1="-6781.749" y1="2937.8394" x2="-5077.1646" y2="1817.2338" gradientTransform="matrix(-1 0 0 1 -6129.7236 0)">
						<stop  offset="0" style="stop-color:#FF928E"/>
						<stop  offset="1" style="stop-color:#FE7062"/>
					</linearGradient>
					<path style="fill:url(#SVGID_00000149356125852224957090000003453663025944611737_);" d="M491.072,2940.53h114.824
						c3.979,0,7.205-3.226,7.205-7.206v-127.108c0-3.979-3.226-7.206-7.205-7.206H491.072c-3.979,0-7.205,3.226-7.205,7.206v127.108
						C483.867,2937.304,487.093,2940.53,491.072,2940.53z"/>
				</g>
				<g style="opacity:0.89;">
					<path style="fill:#FFFFFF;" d="M1058.313,2048.806H952.376c-0.62,0-1.123-0.503-1.123-1.123v-192.348
						c0-0.62,0.503-1.123,1.123-1.123h105.937c0.62,0,1.123,0.503,1.123,1.123v192.348
						C1059.436,2048.304,1058.933,2048.806,1058.313,2048.806z"/>
					<g>
						
							<linearGradient id="SVGID_00000146494330304141836700000005880545453146953125_" gradientUnits="userSpaceOnUse" x1="-7096.4556" y1="1783.6226" x2="-7123.1318" y2="2117.5691" gradientTransform="matrix(-1 0 0 1 -6129.7236 0)">
							<stop  offset="0" style="stop-color:#FF928E"/>
							<stop  offset="1" style="stop-color:#FE7062"/>
						</linearGradient>
						<path style="fill:url(#SVGID_00000146494330304141836700000005880545453146953125_);" d="M1000.52,2038.288h-40.755
							c-0.345,0-0.624-0.279-0.624-0.624v-172.309c0-0.345,0.28-0.624,0.624-0.624h40.755c0.345,0,0.624,0.28,0.624,0.624v172.309
							C1001.144,2038.008,1000.865,2038.288,1000.52,2038.288z"/>
						
							<linearGradient id="SVGID_00000128446467883639198440000011786059990461510317_" gradientUnits="userSpaceOnUse" x1="-7146.4873" y1="1778.9701" x2="-7173.1636" y2="2112.9165" gradientTransform="matrix(-1 0 0 1 -6129.7236 0)">
							<stop  offset="0" style="stop-color:#FF928E"/>
							<stop  offset="1" style="stop-color:#FE7062"/>
						</linearGradient>
						<path style="fill:url(#SVGID_00000128446467883639198440000011786059990461510317_);" d="M1050.923,2038.288h-40.754
							c-0.345,0-0.624-0.279-0.624-0.624v-172.309c0-0.345,0.279-0.624,0.624-0.624h40.754c0.345,0,0.624,0.28,0.624,0.624v172.309
							C1051.548,2038.008,1051.268,2038.288,1050.923,2038.288z"/>
					</g>
					
						<rect x="952.379" y="1919.094" transform="matrix(-1 -1.224647e-16 1.224647e-16 -1 2011.8147 3843.7395)" style="fill:#FFFFFF;" width="107.057" height="5.552"/>
					
						<rect x="952.379" y="1979.219" transform="matrix(-1 -1.224647e-16 1.224647e-16 -1 2011.8147 3963.989)" style="fill:#FFFFFF;" width="107.057" height="5.552"/>
				</g>
				<g style="opacity:0.89;">
					<path style="fill:#FFFFFF;" d="M1057.418,2342.192H951.481c-0.62,0-1.123-0.503-1.123-1.123v-192.348
						c0-0.62,0.503-1.123,1.123-1.123h105.937c0.62,0,1.123,0.503,1.123,1.123v192.348
						C1058.541,2341.689,1058.038,2342.192,1057.418,2342.192z"/>
					<g>
						
							<linearGradient id="SVGID_00000023239503143376661770000008598504523999126955_" gradientUnits="userSpaceOnUse" x1="-7095.5605" y1="2077.0083" x2="-7122.2368" y2="2410.9546" gradientTransform="matrix(-1 0 0 1 -6129.7236 0)">
							<stop  offset="0" style="stop-color:#FF928E"/>
							<stop  offset="1" style="stop-color:#FE7062"/>
						</linearGradient>
						<path style="fill:url(#SVGID_00000023239503143376661770000008598504523999126955_);" d="M999.625,2331.673h-40.754
							c-0.345,0-0.624-0.279-0.624-0.624V2158.74c0-0.345,0.28-0.624,0.624-0.624h40.754c0.345,0,0.624,0.28,0.624,0.624v172.309
							C1000.249,2331.394,999.97,2331.673,999.625,2331.673z"/>
						
							<linearGradient id="SVGID_00000039839133615346272360000001009228394516506502_" gradientUnits="userSpaceOnUse" x1="-7145.5923" y1="2072.356" x2="-7172.2686" y2="2406.3022" gradientTransform="matrix(-1 0 0 1 -6129.7236 0)">
							<stop  offset="0" style="stop-color:#FF928E"/>
							<stop  offset="1" style="stop-color:#FE7062"/>
						</linearGradient>
						<path style="fill:url(#SVGID_00000039839133615346272360000001009228394516506502_);" d="M1050.029,2331.673h-40.754
							c-0.345,0-0.624-0.279-0.624-0.624V2158.74c0-0.345,0.279-0.624,0.624-0.624h40.754c0.345,0,0.624,0.28,0.624,0.624v172.309
							C1050.653,2331.394,1050.373,2331.673,1050.029,2331.673z"/>
					</g>
					
						<rect x="951.484" y="2212.479" transform="matrix(-1 -1.224647e-16 1.224647e-16 -1 2010.0249 4430.5107)" style="fill:#FFFFFF;" width="107.057" height="5.552"/>
					
						<rect x="951.484" y="2272.604" transform="matrix(-1 -1.224647e-16 1.224647e-16 -1 2010.0249 4550.7603)" style="fill:#FFFFFF;" width="107.057" height="5.552"/>
				</g>
				<g style="opacity:0.89;">
					<path style="fill:#FFFFFF;" d="M1056.523,2651.722H950.586c-0.62,0-1.123-0.503-1.123-1.123v-192.348
						c0-0.62,0.503-1.123,1.123-1.123h105.937c0.62,0,1.123,0.503,1.123,1.123v192.348
						C1057.646,2651.219,1057.143,2651.722,1056.523,2651.722z"/>
					<g>
						
							<linearGradient id="SVGID_00000150787878296249290680000003576871274989310871_" gradientUnits="userSpaceOnUse" x1="-7094.6655" y1="2386.5383" x2="-7121.3418" y2="2720.4846" gradientTransform="matrix(-1 0 0 1 -6129.7236 0)">
							<stop  offset="0" style="stop-color:#FF928E"/>
							<stop  offset="1" style="stop-color:#FE7062"/>
						</linearGradient>
						<path style="fill:url(#SVGID_00000150787878296249290680000003576871274989310871_);" d="M998.73,2641.204h-40.754
							c-0.345,0-0.624-0.28-0.624-0.624v-172.309c0-0.345,0.279-0.624,0.624-0.624h40.754c0.345,0,0.624,0.28,0.624,0.624v172.309
							C999.354,2640.924,999.075,2641.204,998.73,2641.204z"/>
						
							<linearGradient id="SVGID_00000171716468573748361690000012745673033888894106_" gradientUnits="userSpaceOnUse" x1="-7144.6973" y1="2381.8857" x2="-7171.3735" y2="2715.8323" gradientTransform="matrix(-1 0 0 1 -6129.7236 0)">
							<stop  offset="0" style="stop-color:#FF928E"/>
							<stop  offset="1" style="stop-color:#FE7062"/>
						</linearGradient>
						<path style="fill:url(#SVGID_00000171716468573748361690000012745673033888894106_);" d="M1049.134,2641.204h-40.754
							c-0.345,0-0.624-0.28-0.624-0.624v-172.309c0-0.345,0.279-0.624,0.624-0.624h40.754c0.345,0,0.624,0.28,0.624,0.624v172.309
							C1049.758,2640.924,1049.478,2641.204,1049.134,2641.204z"/>
					</g>
					
						<rect x="950.589" y="2522.01" transform="matrix(-1 -1.224647e-16 1.224647e-16 -1 2008.2349 5049.5708)" style="fill:#FFFFFF;" width="107.057" height="5.552"/>
					
						<rect x="950.589" y="2582.134" transform="matrix(-1 -1.224647e-16 1.224647e-16 -1 2008.2349 5169.8203)" style="fill:#FFFFFF;" width="107.057" height="5.552"/>
				</g>
				<g style="opacity:0.89;">
					<path style="fill:#FFFFFF;" d="M793.563,2045.692H687.627c-0.62,0-1.123-0.503-1.123-1.123v-192.348
						c0-0.62,0.503-1.123,1.123-1.123h105.937c0.62,0,1.123,0.503,1.123,1.123v192.348
						C794.686,2045.189,794.183,2045.692,793.563,2045.692z"/>
					<g>
						
							<linearGradient id="SVGID_00000045605938981130910320000007345566188024889984_" gradientUnits="userSpaceOnUse" x1="-6831.7061" y1="1780.5082" x2="-6858.3823" y2="2114.4546" gradientTransform="matrix(-1 0 0 1 -6129.7236 0)">
							<stop  offset="0" style="stop-color:#FF928E"/>
							<stop  offset="1" style="stop-color:#FE7062"/>
						</linearGradient>
						<path style="fill:url(#SVGID_00000045605938981130910320000007345566188024889984_);" d="M735.771,2035.173h-40.755
							c-0.345,0-0.624-0.279-0.624-0.624V1862.24c0-0.345,0.279-0.624,0.624-0.624h40.755c0.345,0,0.624,0.279,0.624,0.624v172.309
							C736.395,2034.894,736.115,2035.173,735.771,2035.173z"/>
						
							<linearGradient id="SVGID_00000001644158014833368810000005796846932821069477_" gradientUnits="userSpaceOnUse" x1="-6881.7373" y1="1775.8558" x2="-6908.4141" y2="2109.8022" gradientTransform="matrix(-1 0 0 1 -6129.7236 0)">
							<stop  offset="0" style="stop-color:#FF928E"/>
							<stop  offset="1" style="stop-color:#FE7062"/>
						</linearGradient>
						<path style="fill:url(#SVGID_00000001644158014833368810000005796846932821069477_);" d="M786.174,2035.173h-40.754
							c-0.345,0-0.624-0.279-0.624-0.624V1862.24c0-0.345,0.28-0.624,0.624-0.624h40.754c0.345,0,0.624,0.279,0.624,0.624v172.309
							C786.798,2034.894,786.519,2035.173,786.174,2035.173z"/>
					</g>
					
						<rect x="687.629" y="1915.979" transform="matrix(-1 -1.224647e-16 1.224647e-16 -1 1482.3156 3837.5107)" style="fill:#FFFFFF;" width="107.057" height="5.552"/>
					
						<rect x="687.629" y="1976.104" transform="matrix(-1 -1.224647e-16 1.224647e-16 -1 1482.3156 3957.7603)" style="fill:#FFFFFF;" width="107.057" height="5.552"/>
				</g>
				<g style="opacity:0.89;">
					<path style="fill:#FFFFFF;" d="M792.668,2342.383H686.732c-0.62,0-1.123-0.503-1.123-1.123v-192.348
						c0-0.62,0.503-1.123,1.123-1.123h105.937c0.62,0,1.123,0.503,1.123,1.123v192.348
						C793.791,2341.88,793.289,2342.383,792.668,2342.383z"/>
					<g>
						
							<linearGradient id="SVGID_00000121265701067932210010000013935341570030222986_" gradientUnits="userSpaceOnUse" x1="-6830.811" y1="2077.1992" x2="-6857.4873" y2="2411.1455" gradientTransform="matrix(-1 0 0 1 -6129.7236 0)">
							<stop  offset="0" style="stop-color:#FF928E"/>
							<stop  offset="1" style="stop-color:#FE7062"/>
						</linearGradient>
						<path style="fill:url(#SVGID_00000121265701067932210010000013935341570030222986_);" d="M734.876,2331.865h-40.754
							c-0.345,0-0.624-0.28-0.624-0.624v-172.309c0-0.345,0.279-0.624,0.624-0.624h40.754c0.345,0,0.624,0.28,0.624,0.624v172.309
							C735.5,2331.585,735.22,2331.865,734.876,2331.865z"/>
						
							<linearGradient id="SVGID_00000097493408092010421390000015951600583700223413_" gradientUnits="userSpaceOnUse" x1="-6880.8428" y1="2072.5466" x2="-6907.519" y2="2406.4932" gradientTransform="matrix(-1 0 0 1 -6129.7236 0)">
							<stop  offset="0" style="stop-color:#FF928E"/>
							<stop  offset="1" style="stop-color:#FE7062"/>
						</linearGradient>
						<path style="fill:url(#SVGID_00000097493408092010421390000015951600583700223413_);" d="M785.279,2331.865h-40.754
							c-0.345,0-0.624-0.28-0.624-0.624v-172.309c0-0.345,0.279-0.624,0.624-0.624h40.754c0.345,0,0.624,0.28,0.624,0.624v172.309
							C785.903,2331.585,785.624,2331.865,785.279,2331.865z"/>
					</g>
					
						<rect x="686.734" y="2212.67" transform="matrix(-1 -1.224647e-16 1.224647e-16 -1 1480.5258 4430.8926)" style="fill:#FFFFFF;" width="107.057" height="5.552"/>
					
						<rect x="686.734" y="2272.795" transform="matrix(-1 -1.224647e-16 1.224647e-16 -1 1480.5258 4551.1421)" style="fill:#FFFFFF;" width="107.057" height="5.552"/>
				</g>
				<g style="opacity:0.89;">
					<path style="fill:#FFFFFF;" d="M791.773,2651.913H685.837c-0.62,0-1.123-0.503-1.123-1.123v-192.348
						c0-0.62,0.503-1.123,1.123-1.123h105.937c0.62,0,1.123,0.503,1.123,1.123v192.348
						C792.896,2651.41,792.394,2651.913,791.773,2651.913z"/>
					<g>
						
							<linearGradient id="SVGID_00000178195467761349465120000009672657338067374217_" gradientUnits="userSpaceOnUse" x1="-6829.916" y1="2386.729" x2="-6856.5923" y2="2720.6755" gradientTransform="matrix(-1 0 0 1 -6129.7236 0)">
							<stop  offset="0" style="stop-color:#FF928E"/>
							<stop  offset="1" style="stop-color:#FE7062"/>
						</linearGradient>
						<path style="fill:url(#SVGID_00000178195467761349465120000009672657338067374217_);" d="M733.981,2641.394h-40.754
							c-0.345,0-0.624-0.279-0.624-0.624v-172.309c0-0.345,0.279-0.624,0.624-0.624h40.754c0.345,0,0.624,0.28,0.624,0.624v172.309
							C734.605,2641.115,734.325,2641.394,733.981,2641.394z"/>
						
							<linearGradient id="SVGID_00000020360801789452456940000010027476134993478073_" gradientUnits="userSpaceOnUse" x1="-6879.9478" y1="2382.0767" x2="-6906.624" y2="2716.0232" gradientTransform="matrix(-1 0 0 1 -6129.7236 0)">
							<stop  offset="0" style="stop-color:#FF928E"/>
							<stop  offset="1" style="stop-color:#FE7062"/>
						</linearGradient>
						<path style="fill:url(#SVGID_00000020360801789452456940000010027476134993478073_);" d="M784.384,2641.394H743.63
							c-0.345,0-0.624-0.279-0.624-0.624v-172.309c0-0.345,0.28-0.624,0.624-0.624h40.754c0.345,0,0.624,0.28,0.624,0.624v172.309
							C785.008,2641.115,784.729,2641.394,784.384,2641.394z"/>
					</g>
					
						<rect x="685.839" y="2522.2" transform="matrix(-1 -1.224647e-16 1.224647e-16 -1 1478.7357 5049.9526)" style="fill:#FFFFFF;" width="107.057" height="5.552"/>
					
						<rect x="685.839" y="2582.325" transform="matrix(-1 -1.224647e-16 1.224647e-16 -1 1478.7357 5170.2021)" style="fill:#FFFFFF;" width="107.057" height="5.552"/>
				</g>
				
					<linearGradient id="SVGID_00000036253698837228657720000003770022087068458431_" gradientUnits="userSpaceOnUse" x1="-6313.3008" y1="2044.4398" x2="-8147.6807" y2="951.5156" gradientTransform="matrix(-1 0 0 1 -6129.7236 0)">
					<stop  offset="0" style="stop-color:#E1473D"/>
					<stop  offset="1" style="stop-color:#E9605A"/>
				</linearGradient>
				<path style="fill:url(#SVGID_00000036253698837228657720000003770022087068458431_);" d="M450.328,1733.565h816.745
					l443.962-286.917H625.201L418.154,1709.5C407.253,1720.726,424.417,1733.565,450.328,1733.565z"/>
				
					<linearGradient id="SVGID_00000060737262005846971830000000220836066551304343_" gradientUnits="userSpaceOnUse" x1="1215.9631" y1="1308.2378" x2="1772.1276" y2="188.9556">
					<stop  offset="0" style="stop-color:#E1473D"/>
					<stop  offset="1" style="stop-color:#E9605A"/>
				</linearGradient>
				<path style="fill:url(#SVGID_00000060737262005846971830000000220836066551304343_);" d="M613.534,1446.112l1061.328,15.25
					l28.242-49.897l-1015.182-9.694c-38.081,0-68.951,12.058-68.951,26.933L613.534,1446.112z"/>
			</g>
			<g>
				
					<linearGradient id="SVGID_00000018927515440897588510000017595675015811114639_" gradientUnits="userSpaceOnUse" x1="2045.452" y1="29.4022" x2="1864.6985" y2="2017.702">
					<stop  offset="0" style="stop-color:#FF928E"/>
					<stop  offset="1" style="stop-color:#FE7062"/>
				</linearGradient>
				
					<rect x="1174.845" y="1699.129" style="fill:url(#SVGID_00000018927515440897588510000017595675015811114639_);" width="1327.022" height="1216.688"/>
				<g>
					
						<linearGradient id="SVGID_00000000908781758087563280000015185869672139529623_" gradientUnits="userSpaceOnUse" x1="2340.0645" y1="2432.5247" x2="1343.7537" y2="3239.5715">
						<stop  offset="0" style="stop-color:#FF928E"/>
						<stop  offset="1" style="stop-color:#FE7062"/>
					</linearGradient>
					
						<rect x="2466.113" y="1685.146" style="fill:url(#SVGID_00000000908781758087563280000015185869672139529623_);" width="80.374" height="1225.444"/>
					
						<linearGradient id="SVGID_00000157989996173960147300000010433002662880577923_" gradientUnits="userSpaceOnUse" x1="2330.4133" y1="2815.7778" x2="4091.053" y2="1658.3209">
						<stop  offset="0" style="stop-color:#FF928E"/>
						<stop  offset="1" style="stop-color:#FE7062"/>
					</linearGradient>
					<path style="fill:url(#SVGID_00000157989996173960147300000010433002662880577923_);" d="M2547.026,2919.575h-76.493
						c-7.917,0-14.335-6.418-14.335-14.335v-413.443c0-7.917,6.418-14.335,14.335-14.335h76.493c7.917,0,14.335,6.418,14.335,14.335
						v413.443C2561.361,2913.157,2554.943,2919.575,2547.026,2919.575z"/>
					
						<linearGradient id="SVGID_00000114772233729342939530000000164968764171834244_" gradientUnits="userSpaceOnUse" x1="2410.9722" y1="2929.7507" x2="4110.479" y2="1812.483">
						<stop  offset="0" style="stop-color:#FF928E"/>
						<stop  offset="1" style="stop-color:#FE7062"/>
					</linearGradient>
					<path style="fill:url(#SVGID_00000114772233729342939530000000164968764171834244_);" d="M2571.617,2932.156h-114.824
						c-3.979,0-7.206-3.226-7.206-7.206V2798.82c0-3.979,3.226-7.206,7.206-7.206h114.824c3.979,0,7.206,3.226,7.206,7.206v126.131
						C2578.822,2928.93,2575.596,2932.156,2571.617,2932.156z"/>
				</g>
				
					<linearGradient id="SVGID_00000136387448226655273410000017853446082177961876_" gradientUnits="userSpaceOnUse" x1="1796.1367" y1="-332.9154" x2="1816.9927" y2="494.3825">
					<stop  offset="0" style="stop-color:#E1473D"/>
					<stop  offset="1" style="stop-color:#E9605A"/>
				</linearGradient>
				<path style="fill:url(#SVGID_00000136387448226655273410000017853446082177961876_);" d="M1120.914,1694.622l1450.658,5.01
					c10.331,0.036,14.303-13.445,5.604-19.017l-704.211-451.039l-756.48,448.791
					C1108.856,1682.893,1112.043,1694.592,1120.914,1694.622z"/>
				
					<linearGradient id="SVGID_00000150793258002842592840000017214691101218421895_" gradientUnits="userSpaceOnUse" x1="2200.3862" y1="116.8166" x2="1977.9194" y2="1090.109">
					<stop  offset="0" style="stop-color:#FF928E"/>
					<stop  offset="1" style="stop-color:#FE7062"/>
				</linearGradient>
				<polygon style="fill:url(#SVGID_00000150793258002842592840000017214691101218421895_);" points="1174.845,1702.272 
					2501.867,1699.129 1872.964,1288.298 				"/>
				<g>
					
						<linearGradient id="SVGID_00000090256826215737490350000007775101512765094067_" gradientUnits="userSpaceOnUse" x1="1049.3593" y1="2429.825" x2="56.4231" y2="3234.1384">
						<stop  offset="0" style="stop-color:#FF928E"/>
						<stop  offset="1" style="stop-color:#FE7062"/>
					</linearGradient>
					
						<rect x="1174.845" y="1685.146" style="fill:url(#SVGID_00000090256826215737490350000007775101512765094067_);" width="80.374" height="1220.957"/>
					
						<linearGradient id="SVGID_00000181787479650064550010000009634148450405559454_" gradientUnits="userSpaceOnUse" x1="1037.593" y1="2812.3113" x2="2813.5527" y2="1644.7828">
						<stop  offset="0" style="stop-color:#FF928E"/>
						<stop  offset="1" style="stop-color:#FE7062"/>
					</linearGradient>
					<path style="fill:url(#SVGID_00000181787479650064550010000009634148450405559454_);" d="M1259.372,2915.088h-83.722
						c-5.921,0-10.721-4.8-10.721-10.721v-420.672c0-5.921,4.8-10.721,10.721-10.721h83.722c5.921,0,10.721,4.8,10.721,10.721
						v420.672C1270.093,2910.289,1265.293,2915.088,1259.372,2915.088z"/>
					
						<linearGradient id="SVGID_00000177443339729117254830000004719357612270885799_" gradientUnits="userSpaceOnUse" x1="1119.704" y1="2925.2639" x2="2819.2112" y2="1807.9958">
						<stop  offset="0" style="stop-color:#FF928E"/>
						<stop  offset="1" style="stop-color:#FE7062"/>
					</linearGradient>
					<path style="fill:url(#SVGID_00000177443339729117254830000004719357612270885799_);" d="M1280.349,2927.669h-114.824
						c-3.979,0-7.206-3.226-7.206-7.206v-126.131c0-3.979,3.226-7.206,7.206-7.206h114.824c3.979,0,7.205,3.226,7.205,7.206v126.131
						C1287.554,2924.443,1284.328,2927.669,1280.349,2927.669z"/>
				</g>
				<g>
					
						<linearGradient id="SVGID_00000132787358826295858290000014074424056912944036_" gradientUnits="userSpaceOnUse" x1="1467.4778" y1="2468.2749" x2="471.1671" y2="3275.3218">
						<stop  offset="0" style="stop-color:#FF928E"/>
						<stop  offset="1" style="stop-color:#FE7062"/>
					</linearGradient>
					
						<rect x="1593.527" y="1720.896" style="fill:url(#SVGID_00000132787358826295858290000014074424056912944036_);" width="80.374" height="1225.444"/>
					
						<linearGradient id="SVGID_00000083055935799886600550000014829888716420552870_" gradientUnits="userSpaceOnUse" x1="1454.9443" y1="2853.4229" x2="3244.0354" y2="1677.2618">
						<stop  offset="0" style="stop-color:#FF928E"/>
						<stop  offset="1" style="stop-color:#FE7062"/>
					</linearGradient>
					<path style="fill:url(#SVGID_00000083055935799886600550000014829888716420552870_);" d="M1681.152,2955.326h-89.918
						c-4.21,0-7.623-3.413-7.623-7.623v-426.868c0-4.21,3.413-7.623,7.623-7.623h89.918c4.21,0,7.623,3.413,7.623,7.623v426.868
						C1688.775,2951.913,1685.362,2955.326,1681.152,2955.326z"/>
					
						<linearGradient id="SVGID_00000145059554092685804170000011699372396963004861_" gradientUnits="userSpaceOnUse" x1="1538.3856" y1="2965.501" x2="3237.8931" y2="1848.2329">
						<stop  offset="0" style="stop-color:#FF928E"/>
						<stop  offset="1" style="stop-color:#FE7062"/>
					</linearGradient>
					<path style="fill:url(#SVGID_00000145059554092685804170000011699372396963004861_);" d="M1699.03,2967.906h-114.824
						c-3.979,0-7.206-3.226-7.206-7.205V2834.57c0-3.979,3.226-7.205,7.206-7.205h114.824c3.979,0,7.206,3.226,7.206,7.205v126.131
						C1706.236,2964.68,1703.01,2967.906,1699.03,2967.906z"/>
				</g>
				<g>
					
						<linearGradient id="SVGID_00000138567312111412235800000008032995560965368996_" gradientUnits="userSpaceOnUse" x1="1964.9182" y1="2462.5034" x2="968.6076" y2="3269.5503">
						<stop  offset="0" style="stop-color:#FF928E"/>
						<stop  offset="1" style="stop-color:#FE7062"/>
					</linearGradient>
					
						<rect x="2090.967" y="1715.125" style="fill:url(#SVGID_00000138567312111412235800000008032995560965368996_);" width="80.374" height="1225.444"/>
					
						<linearGradient id="SVGID_00000115497388829976155920000009300156805526798989_" gradientUnits="userSpaceOnUse" x1="1952.0911" y1="2847.8445" x2="3744.0813" y2="1669.7777">
						<stop  offset="0" style="stop-color:#FF928E"/>
						<stop  offset="1" style="stop-color:#FE7062"/>
					</linearGradient>
					<path style="fill:url(#SVGID_00000115497388829976155920000009300156805526798989_);" d="M2179.276,2949.554h-91.286
						c-3.832,0-6.939-3.107-6.939-6.939V2514.38c0-3.832,3.107-6.939,6.939-6.939h91.286c3.832,0,6.939,3.107,6.939,6.939v428.236
						C2186.215,2946.448,2183.108,2949.554,2179.276,2949.554z"/>
					
						<linearGradient id="SVGID_00000010992018681416164700000005986854968021116086_" gradientUnits="userSpaceOnUse" x1="2035.826" y1="2959.7295" x2="3735.3333" y2="1842.4617">
						<stop  offset="0" style="stop-color:#FF928E"/>
						<stop  offset="1" style="stop-color:#FE7062"/>
					</linearGradient>
					<path style="fill:url(#SVGID_00000010992018681416164700000005986854968021116086_);" d="M2196.471,2962.135h-114.824
						c-3.979,0-7.206-3.226-7.206-7.206v-126.131c0-3.979,3.226-7.206,7.206-7.206h114.824c3.979,0,7.206,3.226,7.206,7.206v126.131
						C2203.676,2958.909,2200.45,2962.135,2196.471,2962.135z"/>
				</g>
				<g style="opacity:0.89;">
					<path style="fill:#FFFFFF;" d="M1377.656,2644.466h105.937c0.62,0,1.123-0.503,1.123-1.123v-212.18
						c0-0.62-0.503-1.123-1.123-1.123h-105.937c-0.62,0-1.123,0.503-1.123,1.123v212.18
						C1376.533,2643.963,1377.036,2644.466,1377.656,2644.466z"/>
					<g>
						
							<linearGradient id="SVGID_00000078046052180415767090000001200487406815372968_" gradientUnits="userSpaceOnUse" x1="1470.5789" y1="2352.5723" x2="1441.234" y2="2719.9246">
							<stop  offset="0" style="stop-color:#FF928E"/>
							<stop  offset="1" style="stop-color:#FE7062"/>
						</linearGradient>
						<path style="fill:url(#SVGID_00000078046052180415767090000001200487406815372968_);" d="M1435.449,2632.875h40.754
							c0.345,0,0.624-0.279,0.624-0.624v-189.996c0-0.345-0.28-0.624-0.624-0.624h-40.754c-0.345,0-0.624,0.28-0.624,0.624v189.996
							C1434.825,2632.596,1435.104,2632.875,1435.449,2632.875z"/>
						
							<linearGradient id="SVGID_00000013172744786761187050000001788742234157279618_" gradientUnits="userSpaceOnUse" x1="1420.5842" y1="2347.4546" x2="1391.2395" y2="2714.8066">
							<stop  offset="0" style="stop-color:#FF928E"/>
							<stop  offset="1" style="stop-color:#FE7062"/>
						</linearGradient>
						<path style="fill:url(#SVGID_00000013172744786761187050000001788742234157279618_);" d="M1385.046,2632.875h40.754
							c0.345,0,0.624-0.279,0.624-0.624v-189.996c0-0.345-0.279-0.624-0.624-0.624h-40.754c-0.345,0-0.624,0.28-0.624,0.624v189.996
							C1384.421,2632.596,1384.701,2632.875,1385.046,2632.875z"/>
					</g>
					<rect x="1376.533" y="2501.534" style="fill:#FFFFFF;" width="107.057" height="6.118"/>
					<rect x="1376.533" y="2567.787" style="fill:#FFFFFF;" width="107.057" height="6.118"/>
				</g>
				<g style="opacity:0.89;">
					<path style="fill:#FFFFFF;" d="M1375.109,2353.725h105.936c0.62,0,1.123-0.503,1.123-1.123v-212.18
						c0-0.62-0.503-1.123-1.123-1.123h-105.937c-0.62,0-1.123,0.503-1.123,1.123v212.18
						C1373.985,2353.222,1374.488,2353.725,1375.109,2353.725z"/>
					<g>
						
							<linearGradient id="SVGID_00000123414605521959736710000004742832699413419141_" gradientUnits="userSpaceOnUse" x1="1468.0311" y1="2061.8311" x2="1438.6864" y2="2429.1833">
							<stop  offset="0" style="stop-color:#FF928E"/>
							<stop  offset="1" style="stop-color:#FE7062"/>
						</linearGradient>
						<path style="fill:url(#SVGID_00000123414605521959736710000004742832699413419141_);" d="M1432.901,2342.135h40.754
							c0.345,0,0.624-0.28,0.624-0.624v-189.996c0-0.345-0.28-0.624-0.624-0.624h-40.754c-0.345,0-0.624,0.28-0.624,0.624v189.996
							C1432.277,2341.855,1432.557,2342.135,1432.901,2342.135z"/>
						
							<linearGradient id="SVGID_00000060011489370989666010000016064310909285556376_" gradientUnits="userSpaceOnUse" x1="1418.0366" y1="2056.7134" x2="1388.6918" y2="2424.0657">
							<stop  offset="0" style="stop-color:#FF928E"/>
							<stop  offset="1" style="stop-color:#FE7062"/>
						</linearGradient>
						<path style="fill:url(#SVGID_00000060011489370989666010000016064310909285556376_);" d="M1382.498,2342.135h40.754
							c0.345,0,0.624-0.28,0.624-0.624v-189.996c0-0.345-0.279-0.624-0.624-0.624h-40.754c-0.345,0-0.624,0.28-0.624,0.624v189.996
							C1381.874,2341.855,1382.153,2342.135,1382.498,2342.135z"/>
					</g>
					<rect x="1373.985" y="2210.793" style="fill:#FFFFFF;" width="107.057" height="6.118"/>
					<rect x="1373.985" y="2277.045" style="fill:#FFFFFF;" width="107.057" height="6.118"/>
				</g>
				<g style="opacity:0.89;">
					<path style="fill:#FFFFFF;" d="M2271.8,2639.92h105.937c0.62,0,1.123-0.503,1.123-1.123v-212.18
						c0-0.62-0.503-1.123-1.123-1.123H2271.8c-0.62,0-1.123,0.503-1.123,1.123v212.18
						C2270.677,2639.417,2271.179,2639.92,2271.8,2639.92z"/>
					<g>
						
							<linearGradient id="SVGID_00000049218279638467228970000007845209054896033681_" gradientUnits="userSpaceOnUse" x1="2364.7222" y1="2348.0264" x2="2335.3772" y2="2715.3787">
							<stop  offset="0" style="stop-color:#FF928E"/>
							<stop  offset="1" style="stop-color:#FE7062"/>
						</linearGradient>
						<path style="fill:url(#SVGID_00000049218279638467228970000007845209054896033681_);" d="M2329.592,2628.33h40.754
							c0.345,0,0.624-0.279,0.624-0.624v-189.997c0-0.344-0.279-0.624-0.624-0.624h-40.754c-0.345,0-0.624,0.28-0.624,0.624v189.997
							C2328.968,2628.05,2329.248,2628.33,2329.592,2628.33z"/>
						
							<linearGradient id="SVGID_00000113332398882360958300000014262617243595861683_" gradientUnits="userSpaceOnUse" x1="2314.7275" y1="2342.9084" x2="2285.3828" y2="2710.2607">
							<stop  offset="0" style="stop-color:#FF928E"/>
							<stop  offset="1" style="stop-color:#FE7062"/>
						</linearGradient>
						<path style="fill:url(#SVGID_00000113332398882360958300000014262617243595861683_);" d="M2279.189,2628.33h40.755
							c0.345,0,0.624-0.279,0.624-0.624v-189.997c0-0.344-0.279-0.624-0.624-0.624h-40.755c-0.345,0-0.624,0.28-0.624,0.624v189.997
							C2278.565,2628.05,2278.844,2628.33,2279.189,2628.33z"/>
					</g>
					<rect x="2270.677" y="2496.988" style="fill:#FFFFFF;" width="107.057" height="6.118"/>
					<rect x="2270.677" y="2563.24" style="fill:#FFFFFF;" width="107.057" height="6.118"/>
				</g>
				<g style="opacity:0.89;">
					<path style="fill:#FFFFFF;" d="M2269.252,2349.179h105.937c0.62,0,1.123-0.503,1.123-1.123v-212.18
						c0-0.62-0.503-1.123-1.123-1.123h-105.937c-0.62,0-1.123,0.503-1.123,1.123v212.18
						C2268.129,2348.676,2268.632,2349.179,2269.252,2349.179z"/>
					<g>
						
							<linearGradient id="SVGID_00000168083771880856620360000016582855486183629759_" gradientUnits="userSpaceOnUse" x1="2362.1743" y1="2057.2852" x2="2332.8296" y2="2424.6375">
							<stop  offset="0" style="stop-color:#FF928E"/>
							<stop  offset="1" style="stop-color:#FE7062"/>
						</linearGradient>
						<path style="fill:url(#SVGID_00000168083771880856620360000016582855486183629759_);" d="M2327.044,2337.588h40.754
							c0.345,0,0.624-0.279,0.624-0.624v-189.996c0-0.345-0.28-0.624-0.624-0.624h-40.754c-0.345,0-0.624,0.28-0.624,0.624v189.996
							C2326.42,2337.309,2326.7,2337.588,2327.044,2337.588z"/>
						
							<linearGradient id="SVGID_00000152227641050933240240000008884427909147549063_" gradientUnits="userSpaceOnUse" x1="2312.1797" y1="2052.1675" x2="2282.835" y2="2419.5195">
							<stop  offset="0" style="stop-color:#FF928E"/>
							<stop  offset="1" style="stop-color:#FE7062"/>
						</linearGradient>
						<path style="fill:url(#SVGID_00000152227641050933240240000008884427909147549063_);" d="M2276.641,2337.588h40.754
							c0.345,0,0.624-0.279,0.624-0.624v-189.996c0-0.345-0.28-0.624-0.624-0.624h-40.754c-0.345,0-0.624,0.28-0.624,0.624v189.996
							C2276.017,2337.309,2276.296,2337.588,2276.641,2337.588z"/>
					</g>
					<rect x="2268.129" y="2206.247" style="fill:#FFFFFF;" width="107.057" height="6.118"/>
					<rect x="2268.129" y="2272.5" style="fill:#FFFFFF;" width="107.057" height="6.118"/>
				</g>
				<g>
					
						<linearGradient id="SVGID_00000064329160031923759020000008302954764543561883_" gradientUnits="userSpaceOnUse" x1="1877.4707" y1="1480.5924" x2="1923.8181" y2="1091.2753">
						<stop  offset="0" style="stop-color:#FEBBBA"/>
						<stop  offset="1" style="stop-color:#FF928E"/>
					</linearGradient>
					
						<circle style="fill:url(#SVGID_00000064329160031923759020000008302954764543561883_);" cx="1873.269" cy="1515.883" r="71.095"/>
					
						<linearGradient id="SVGID_00000050657993422730547790000016807976620877023635_" gradientUnits="userSpaceOnUse" x1="1958.3268" y1="1342.6466" x2="1802.7283" y2="1659.5538">
						<stop  offset="0" style="stop-color:#E1473D"/>
						<stop  offset="1" style="stop-color:#E9605A"/>
					</linearGradient>
					
						<circle style="fill:url(#SVGID_00000050657993422730547790000016807976620877023635_);" cx="1873.269" cy="1515.883" r="60.683"/>
				</g>
				<g>
					
						<linearGradient id="SVGID_00000160160372019361876240000017157433931278056894_" gradientUnits="userSpaceOnUse" x1="1781.2318" y1="3464.8215" x2="2010.6499" y2="1851.9371">
						<stop  offset="0" style="stop-color:#FEBBBA"/>
						<stop  offset="1" style="stop-color:#FF928E"/>
					</linearGradient>
					<path style="fill:url(#SVGID_00000160160372019361876240000017157433931278056894_);" d="M2011.951,2902.542h-251.199v-353.497
						c22.639-138.656,243.213-133.803,251.199,0V2902.542z"/>
					
						<linearGradient id="SVGID_00000064355779914202416060000000428363276635965340_" gradientUnits="userSpaceOnUse" x1="3013.3838" y1="1475.1115" x2="1549.9718" y2="3091.4719">
						<stop  offset="0" style="stop-color:#FF928E"/>
						<stop  offset="1" style="stop-color:#FE7062"/>
					</linearGradient>
					<path style="fill:url(#SVGID_00000064355779914202416060000000428363276635965340_);" d="M1995.489,2902.542h-218.275v-335.174
						c19.672-131.469,211.335-126.868,218.275,0V2902.542z"/>
					
						<linearGradient id="SVGID_00000098219279984121867410000013787966271573636751_" gradientUnits="userSpaceOnUse" x1="1880.8892" y1="2790.0913" x2="1893.9955" y2="2983.4111">
						<stop  offset="0" style="stop-color:#FF928E"/>
						<stop  offset="1" style="stop-color:#FE7062"/>
					</linearGradient>
					<path style="fill:url(#SVGID_00000098219279984121867410000013787966271573636751_);" d="M2023.446,2894.457h-273.012v-30.117
						c0-1.751,1.419-3.171,3.171-3.171h266.671c1.751,0,3.17,1.419,3.17,3.17V2894.457z"/>
					
						<linearGradient id="SVGID_00000176765137433486357600000011539296687017745836_" gradientUnits="userSpaceOnUse" x1="1885.1536" y1="2874.1709" x2="1898.2599" y2="3067.4905">
						<stop  offset="0" style="stop-color:#FF928E"/>
						<stop  offset="1" style="stop-color:#FE7062"/>
					</linearGradient>
					<path style="fill:url(#SVGID_00000176765137433486357600000011539296687017745836_);" d="M2023.446,2915.636h-273.012v-30.117
						c0-1.751,1.419-3.171,3.171-3.171h266.671c1.751,0,3.17,1.419,3.17,3.17V2915.636z"/>
				</g>
				<g>
					<path style="fill:#FFFFFF;" d="M2268.332,2062.724h104.47c1.025,0,1.856-0.831,1.856-1.856l0-212.57
						c-1.126-67.251-103.625-68.904-108.183,0v212.57C2266.476,2061.893,2267.307,2062.724,2268.332,2062.724z"/>
					<g>
						
							<linearGradient id="SVGID_00000151545770500866489200000011739406524426096802_" gradientUnits="userSpaceOnUse" x1="2360.5217" y1="1770.8301" x2="2331.177" y2="2138.1821">
							<stop  offset="0" style="stop-color:#FF928E"/>
							<stop  offset="1" style="stop-color:#FE7062"/>
						</linearGradient>
						<path style="fill:url(#SVGID_00000151545770500866489200000011739406524426096802_);" d="M2325.392,2051.133h40.754
							c0.345,0,0.624-0.279,0.624-0.624v-189.996c0-0.345-0.28-0.624-0.624-0.624h-40.754c-0.345,0-0.624,0.279-0.624,0.624v189.996
							C2324.768,2050.854,2325.047,2051.133,2325.392,2051.133z"/>
						
							<linearGradient id="SVGID_00000103256263224489127690000007565552546858713530_" gradientUnits="userSpaceOnUse" x1="2310.5271" y1="1765.7123" x2="2281.1824" y2="2133.0645">
							<stop  offset="0" style="stop-color:#FF928E"/>
							<stop  offset="1" style="stop-color:#FE7062"/>
						</linearGradient>
						<path style="fill:url(#SVGID_00000103256263224489127690000007565552546858713530_);" d="M2274.989,2051.133h40.754
							c0.345,0,0.624-0.279,0.624-0.624v-189.996c0-0.345-0.28-0.624-0.624-0.624h-40.754c-0.345,0-0.624,0.279-0.624,0.624v189.996
							C2274.364,2050.854,2274.644,2051.133,2274.989,2051.133z"/>
					</g>
					<rect x="2266.476" y="1919.792" style="fill:#FFFFFF;" width="107.057" height="6.118"/>
					<rect x="2266.476" y="1986.044" style="fill:#FFFFFF;" width="107.057" height="6.118"/>
					
						<linearGradient id="SVGID_00000073690981535831825290000006828075834947871889_" gradientUnits="userSpaceOnUse" x1="2338.5981" y1="1781.1194" x2="2295.2634" y2="1955.3068">
						<stop  offset="0" style="stop-color:#FF928E"/>
						<stop  offset="1" style="stop-color:#FE7062"/>
					</linearGradient>
					<path style="fill:url(#SVGID_00000073690981535831825290000006828075834947871889_);" d="M2274.89,1853.891
						c2.479-62.569,90.068-66.045,92.547,0H2274.89z"/>
				</g>
				<g>
					<path style="fill:#FFFFFF;" d="M1721.313,2062.724h104.471c1.025,0,1.856-0.831,1.856-1.856l0-212.57
						c-1.126-67.251-103.625-68.904-108.183,0l0,212.57C1719.457,2061.893,1720.288,2062.724,1721.313,2062.724z"/>
					<g>
						
							<linearGradient id="SVGID_00000106128592140181932140000017298446681809429388_" gradientUnits="userSpaceOnUse" x1="1813.5024" y1="1770.8301" x2="1784.1577" y2="2138.1821">
							<stop  offset="0" style="stop-color:#FF928E"/>
							<stop  offset="1" style="stop-color:#FE7062"/>
						</linearGradient>
						<path style="fill:url(#SVGID_00000106128592140181932140000017298446681809429388_);" d="M1778.373,2051.133h40.754
							c0.345,0,0.624-0.279,0.624-0.624v-189.996c0-0.345-0.28-0.624-0.624-0.624h-40.754c-0.345,0-0.624,0.279-0.624,0.624v189.996
							C1777.748,2050.854,1778.028,2051.133,1778.373,2051.133z"/>
						
							<linearGradient id="SVGID_00000097466481362597414390000011480109495236240520_" gradientUnits="userSpaceOnUse" x1="1763.5079" y1="1765.7123" x2="1734.1631" y2="2133.0645">
							<stop  offset="0" style="stop-color:#FF928E"/>
							<stop  offset="1" style="stop-color:#FE7062"/>
						</linearGradient>
						<path style="fill:url(#SVGID_00000097466481362597414390000011480109495236240520_);" d="M1727.969,2051.133h40.754
							c0.345,0,0.624-0.279,0.624-0.624v-189.996c0-0.345-0.279-0.624-0.624-0.624h-40.754c-0.345,0-0.624,0.279-0.624,0.624
							v189.996C1727.345,2050.854,1727.625,2051.133,1727.969,2051.133z"/>
					</g>
					<rect x="1719.457" y="1919.792" style="fill:#FFFFFF;" width="107.057" height="6.118"/>
					<rect x="1719.457" y="1986.044" style="fill:#FFFFFF;" width="107.057" height="6.118"/>
					
						<linearGradient id="SVGID_00000097484203221878232890000009711326118938168495_" gradientUnits="userSpaceOnUse" x1="1791.5787" y1="1781.1194" x2="1748.2443" y2="1955.3068">
						<stop  offset="0" style="stop-color:#FF928E"/>
						<stop  offset="1" style="stop-color:#FE7062"/>
					</linearGradient>
					<path style="fill:url(#SVGID_00000097484203221878232890000009711326118938168495_);" d="M1727.87,1853.891
						c2.479-62.569,90.068-66.045,92.547,0H1727.87z"/>
				</g>
				<g>
					<path style="fill:#FFFFFF;" d="M1922.933,2062.724h104.471c1.025,0,1.856-0.831,1.856-1.856l0-212.57
						c-1.126-67.251-103.625-68.904-108.183,0v212.57C1921.077,2061.893,1921.908,2062.724,1922.933,2062.724z"/>
					<g>
						
							<linearGradient id="SVGID_00000144318354040487431710000008328038266033542069_" gradientUnits="userSpaceOnUse" x1="2015.1229" y1="1770.8301" x2="1985.7781" y2="2138.1821">
							<stop  offset="0" style="stop-color:#FF928E"/>
							<stop  offset="1" style="stop-color:#FE7062"/>
						</linearGradient>
						<path style="fill:url(#SVGID_00000144318354040487431710000008328038266033542069_);" d="M1979.993,2051.133h40.754
							c0.345,0,0.624-0.279,0.624-0.624v-189.996c0-0.345-0.28-0.624-0.624-0.624h-40.754c-0.345,0-0.624,0.279-0.624,0.624v189.996
							C1979.369,2050.854,1979.648,2051.133,1979.993,2051.133z"/>
						
							<linearGradient id="SVGID_00000134969753668071753880000015358442806722262913_" gradientUnits="userSpaceOnUse" x1="1965.1283" y1="1765.7123" x2="1935.7834" y2="2133.0645">
							<stop  offset="0" style="stop-color:#FF928E"/>
							<stop  offset="1" style="stop-color:#FE7062"/>
						</linearGradient>
						<path style="fill:url(#SVGID_00000134969753668071753880000015358442806722262913_);" d="M1929.59,2051.133h40.754
							c0.345,0,0.624-0.279,0.624-0.624v-189.996c0-0.345-0.279-0.624-0.624-0.624h-40.754c-0.345,0-0.624,0.279-0.624,0.624
							v189.996C1928.965,2050.854,1929.245,2051.133,1929.59,2051.133z"/>
					</g>
					<rect x="1921.077" y="1919.792" style="fill:#FFFFFF;" width="107.057" height="6.118"/>
					<rect x="1921.077" y="1986.044" style="fill:#FFFFFF;" width="107.057" height="6.118"/>
					
						<linearGradient id="SVGID_00000068677174853383307180000000249685729333689788_" gradientUnits="userSpaceOnUse" x1="1993.1991" y1="1781.1194" x2="1949.8646" y2="1955.3068">
						<stop  offset="0" style="stop-color:#FF928E"/>
						<stop  offset="1" style="stop-color:#FE7062"/>
					</linearGradient>
					<path style="fill:url(#SVGID_00000068677174853383307180000000249685729333689788_);" d="M1929.491,1853.891
						c2.479-62.569,90.068-66.045,92.547,0H1929.491z"/>
				</g>
				<g>
					<path style="fill:#FFFFFF;" d="M1379.219,2062.724h104.471c1.025,0,1.856-0.831,1.856-1.856l0-212.57
						c-1.126-67.251-103.625-68.904-108.183,0v212.57C1377.363,2061.893,1378.194,2062.724,1379.219,2062.724z"/>
					<g>
						
							<linearGradient id="SVGID_00000150812941672502368260000010786159683465367477_" gradientUnits="userSpaceOnUse" x1="1471.4088" y1="1770.8301" x2="1442.0641" y2="2138.1821">
							<stop  offset="0" style="stop-color:#FF928E"/>
							<stop  offset="1" style="stop-color:#FE7062"/>
						</linearGradient>
						<path style="fill:url(#SVGID_00000150812941672502368260000010786159683465367477_);" d="M1436.279,2051.133h40.754
							c0.345,0,0.624-0.279,0.624-0.624v-189.996c0-0.345-0.28-0.624-0.624-0.624h-40.754c-0.345,0-0.624,0.279-0.624,0.624v189.996
							C1435.655,2050.854,1435.934,2051.133,1436.279,2051.133z"/>
						
							<linearGradient id="SVGID_00000162344715052704765310000012030528437591833247_" gradientUnits="userSpaceOnUse" x1="1421.4143" y1="1765.7123" x2="1392.0695" y2="2133.0645">
							<stop  offset="0" style="stop-color:#FF928E"/>
							<stop  offset="1" style="stop-color:#FE7062"/>
						</linearGradient>
						<path style="fill:url(#SVGID_00000162344715052704765310000012030528437591833247_);" d="M1385.876,2051.133h40.754
							c0.345,0,0.624-0.279,0.624-0.624v-189.996c0-0.345-0.279-0.624-0.624-0.624h-40.754c-0.345,0-0.624,0.279-0.624,0.624
							v189.996C1385.251,2050.854,1385.531,2051.133,1385.876,2051.133z"/>
					</g>
					<rect x="1377.363" y="1919.792" style="fill:#FFFFFF;" width="107.057" height="6.118"/>
					<rect x="1377.363" y="1986.044" style="fill:#FFFFFF;" width="107.057" height="6.118"/>
					
						<linearGradient id="SVGID_00000069381225177271112440000000950347854278361746_" gradientUnits="userSpaceOnUse" x1="1449.4851" y1="1781.1194" x2="1406.1506" y2="1955.3068">
						<stop  offset="0" style="stop-color:#FF928E"/>
						<stop  offset="1" style="stop-color:#FE7062"/>
					</linearGradient>
					<path style="fill:url(#SVGID_00000069381225177271112440000000950347854278361746_);" d="M1385.777,1853.891
						c2.479-62.569,90.068-66.045,92.547,0H1385.777z"/>
				</g>
				
					<linearGradient id="SVGID_00000010272410723994053400000016247002166965674419_" gradientUnits="userSpaceOnUse" x1="1852.75" y1="1614.6222" x2="1786.0322" y2="2818.894">
					<stop  offset="0" style="stop-color:#FF928E"/>
					<stop  offset="1" style="stop-color:#FE7062"/>
				</linearGradient>
				<path style="fill:url(#SVGID_00000010272410723994053400000016247002166965674419_);" d="M2565.644,1777.833h-1439.68
					c-9.006,0-16.307-7.301-16.307-16.307v-43.506H2581.95v43.506C2581.95,1770.532,2574.65,1777.833,2565.644,1777.833z"/>
				
					<linearGradient id="SVGID_00000133515612116845385650000015541638511029070266_" gradientUnits="userSpaceOnUse" x1="1808.1007" y1="1805.8661" x2="1422.4348" y2="2752.9756">
					<stop  offset="0" style="stop-color:#FF928E"/>
					<stop  offset="1" style="stop-color:#FE7062"/>
				</linearGradient>
				<path style="fill:url(#SVGID_00000133515612116845385650000015541638511029070266_);" d="M2588.472,1724.571H1109.99
					c-2.968,0-5.374-2.406-5.374-5.374v-28.676c0-2.968,2.406-5.374,5.374-5.374h1478.482c2.968,0,5.374,2.406,5.374,5.374v28.676
					C2593.846,1722.164,2591.44,1724.571,2588.472,1724.571z"/>
			</g>
		</g>
		<g>
			
				<linearGradient id="SVGID_00000021084854231947145540000013275615170020388783_" gradientUnits="userSpaceOnUse" x1="568.0415" y1="442.5031" x2="741.8436" y2="1172.4718">
				<stop  offset="0" style="stop-color:#4F52FF"/>
				<stop  offset="1" style="stop-color:#4042E2"/>
			</linearGradient>
			<path style="fill:url(#SVGID_00000021084854231947145540000013275615170020388783_);" d="M774.849,1366.397l-259.11-34.712
				l77.581,162.87c8.17,16.821,23.979,27.545,40.278,27.278c149.164-2.436,278.11-35.795,369.328-126.861
				c8.316-8.302,12.69-20.616,12.161-33.753l-8.292-184.804C1006.795,1176.416,778.299,1366.739,774.849,1366.397z"/>
			
				<linearGradient id="SVGID_00000036969016688925402600000005177557176889490843_" gradientUnits="userSpaceOnUse" x1="51.5847" y1="2152.6201" x2="-673.5787" y2="2522.6021" gradientTransform="matrix(0.9458 -0.3249 0.3249 0.9458 -80.5699 -720.4186)">
				<stop  offset="0" style="stop-color:#4F52FF"/>
				<stop  offset="1" style="stop-color:#4042E2"/>
			</linearGradient>
			<path style="fill:url(#SVGID_00000036969016688925402600000005177557176889490843_);" d="M420.168,1300.162l310.043-209.273
				c2.544-2.24,372.092-28.503,372.092-28.503c14.211,0.802,21.097,21.483,10.174,30.558l-300.121,255.544
				c-18.751,15.966-43.331,23.351-67.776,20.365l-314.512-38.425C416.315,1329.068,409.836,1309.261,420.168,1300.162z"/>
			
				<linearGradient id="SVGID_00000174588035871938583720000006456294062112306080_" gradientUnits="userSpaceOnUse" x1="1098.8535" y1="1076.3625" x2="1130.8871" y2="1435.1359">
				<stop  offset="0" style="stop-color:#09005D"/>
				<stop  offset="1" style="stop-color:#1A0F91"/>
			</linearGradient>
			<path style="fill:url(#SVGID_00000174588035871938583720000006456294062112306080_);" d="M1085.286,1178.689
				c0,0-38.485,127.393,52.671,169.009c3.278,1.497,6.703-0.511,7.182-4.278l7.889-62.001
				C1158.886,1235.388,1085.286,1178.689,1085.286,1178.689z"/>
			
				<linearGradient id="SVGID_00000051352974770441161250000004921124483079092392_" gradientUnits="userSpaceOnUse" x1="1067.7361" y1="1079.1409" x2="1099.7697" y2="1437.9139">
				<stop  offset="0" style="stop-color:#09005D"/>
				<stop  offset="1" style="stop-color:#1A0F91"/>
			</linearGradient>
			<polygon style="fill:url(#SVGID_00000051352974770441161250000004921124483079092392_);" points="1090.645,1195.206 
				1083.238,1197.751 1059.65,1129.084 1072.015,1119.52 			"/>
			<path style="fill:#BDD0FB;" d="M757.749,1347.628c-2.169,0-4.342-0.112-6.511-0.34l-329.144-34.496
				c-1.908-0.2-3.293-1.908-3.092-3.819c0.197-1.904,1.833-3.347,3.819-3.093l329.144,34.496
				c15.035,1.548,30.405-3.089,42.042-12.815l303.549-253.571c1.473-1.229,3.663-1.032,4.895,0.441
				c1.229,1.473,1.035,3.663-0.441,4.895l-303.546,253.571C787.068,1342.421,772.519,1347.628,757.749,1347.628z"/>
		</g>
		<g>
			
				<linearGradient id="SVGID_00000025434532400087846300000014342325383603999405_" gradientUnits="userSpaceOnUse" x1="-75.499" y1="3124.1338" x2="-468.2544" y2="3551.3418" gradientTransform="matrix(1 0 0 1 1260.9575 0)">
				<stop  offset="0" style="stop-color:#09005D"/>
				<stop  offset="1" style="stop-color:#1A0F91"/>
			</linearGradient>
			<path style="fill:url(#SVGID_00000025434532400087846300000014342325383603999405_);" d="M1061.308,3155.958
				c0,0-4.067,23.027-6.062,45.821c-0.779,8.908,6.089,16.643,15.024,17.015c30.355,1.264,95.285,3.723,118.584,2.683
				c3.503-0.156,5.792-3.742,4.496-7l0,0c-1.086-2.73-3.181-4.937-5.851-6.163l-107.252-49.293L1061.308,3155.958z"/>
			
				<linearGradient id="SVGID_00000021823802595859199140000010413560420588210052_" gradientUnits="userSpaceOnUse" x1="-202.9817" y1="3155.863" x2="-168.0951" y2="3155.863" gradientTransform="matrix(1 0 0 1 1260.9575 0)">
				<stop  offset="0" style="stop-color:#A22B25"/>
				<stop  offset="1" style="stop-color:#C0423C"/>
			</linearGradient>
			<path style="fill:url(#SVGID_00000021823802595859199140000010413560420588210052_);" d="M1057.976,3142.428l3.268,27.543
				c0,0,18.788,8.746,31.618-1.102l-7.781-30.694L1057.976,3142.428z"/>
			
				<linearGradient id="SVGID_00000005225465466617072370000008301173891773353097_" gradientUnits="userSpaceOnUse" x1="-285.7058" y1="2889.1091" x2="-170.3535" y2="2889.1091" gradientTransform="matrix(1 0 0 1 1260.9575 0)">
				<stop  offset="0" style="stop-color:#09005D"/>
				<stop  offset="1" style="stop-color:#1A0F91"/>
			</linearGradient>
			<path style="fill:url(#SVGID_00000005225465466617072370000008301173891773353097_);" d="M1060.432,2624.612
				c-1.412,7.192-7.577,358.932,30.021,516.558c0.614,2.572-0.69,5.223-3.138,6.223c-5.766,2.356-17.072,5.768-30.621,6.223
				c-4.195,0.141-7.958-2.586-9.141-6.614c-10.748-36.571-62.247-219.806-68.965-394.845c-7.507-195.589,0-6.66,0-6.66
				l4.403-120.901L1060.432,2624.612z"/>
			
				<linearGradient id="SVGID_00000125572769098872539830000007452322650078616767_" gradientUnits="userSpaceOnUse" x1="-163.6069" y1="3043.1306" x2="-556.3638" y2="3470.3403" gradientTransform="matrix(1 0 0 1 1260.9575 0)">
				<stop  offset="0" style="stop-color:#09005D"/>
				<stop  offset="1" style="stop-color:#1A0F91"/>
			</linearGradient>
			<path style="fill:url(#SVGID_00000125572769098872539830000007452322650078616767_);" d="M937.932,3167.971
				c0,0-6.475,11.625-12.743,42.514c-1.132,5.579,2.766,10.918,8.431,11.475c10.023,0.986,25.453,2.253,37.814,2.168
				c5.698-0.039,10.144-5,9.458-10.657c-1.369-11.275-5.635-29.774-18.811-44.191L937.932,3167.971z"/>
			
				<linearGradient id="SVGID_00000093882955016641030390000006794520974898100156_" gradientUnits="userSpaceOnUse" x1="-328.7122" y1="3154.074" x2="-298.5909" y2="3154.074" gradientTransform="matrix(1 0 0 1 1260.9575 0)">
				<stop  offset="0" style="stop-color:#A22B25"/>
				<stop  offset="1" style="stop-color:#C0423C"/>
			</linearGradient>
			<path style="fill:url(#SVGID_00000093882955016641030390000006794520974898100156_);" d="M932.245,3132.544l7.636,41.652
				c0,0,7.55,5.616,22.485,1.545l-3.645-44.815L932.245,3132.544z"/>
			
				<linearGradient id="SVGID_00000118396098459307198790000000640761441105660592_" gradientUnits="userSpaceOnUse" x1="621.3148" y1="3540.6938" x2="901.7161" y2="2968.3032">
				<stop  offset="0" style="stop-color:#09005D"/>
				<stop  offset="1" style="stop-color:#1A0F91"/>
			</linearGradient>
			<path style="fill:url(#SVGID_00000118396098459307198790000000640761441105660592_);" d="M911.617,2635.405
				c-30.75,185.581,6.671,458.678,19.291,512.13c0.772,3.272,3.413,5.78,6.73,6.33c5.633,0.934,14.908,1.696,24.051-0.96
				c3.151-0.915,5.364-3.757,5.492-7.035c1.693-43.214-1.354-308.507,27.298-413.352c1.452-5.313,4.697-9.948,9.187-13.139
				l55.612-39.535l4.264-63.906L911.617,2635.405z"/>
			<g>
				
					<linearGradient id="SVGID_00000155140184483520784170000016680094918769355683_" gradientUnits="userSpaceOnUse" x1="2152.9561" y1="2636.4434" x2="2387.738" y2="2301.3665" gradientTransform="matrix(-1 0 0 1 3331.1785 0)">
					<stop  offset="0" style="stop-color:#4F52FF"/>
					<stop  offset="1" style="stop-color:#4042E2"/>
				</linearGradient>
				<path style="fill:url(#SVGID_00000155140184483520784170000016680094918769355683_);" d="M1107.559,2283.766
					c-92.154-1.522-193.834,24.197-193.834,24.197c-27.469,160.28-4.803,345.152-4.803,345.152
					c71.343,18.709,151.821-11.439,151.821-11.439c11.858-66.993,67.182-255.534,67.182-255.534
					c45.026-5.589,82.117-18.579,112.662-35.753c-23.299-27.007-34.283-61.373-39.054-81.687
					C1168.952,2278.827,1135.982,2284.236,1107.559,2283.766z"/>
				
					<linearGradient id="SVGID_00000098935026299788410910000002463712268214771864_" gradientUnits="userSpaceOnUse" x1="2219.5393" y1="2425.2473" x2="1900.4194" y2="2107.6465" gradientTransform="matrix(-1 0 0 1 3331.1785 0)">
					<stop  offset="0" style="stop-color:#A22B25"/>
					<stop  offset="1" style="stop-color:#C0423C"/>
				</linearGradient>
				<path style="fill:url(#SVGID_00000098935026299788410910000002463712268214771864_);" d="M1379.763,2148.03
					c-9.053-10.934-20.51-5.762-20.51-5.762c-13.561,57.284-84.667,103.731-157.719,126.433
					c4.771,20.314,15.755,54.68,39.054,81.687C1361.823,2282.222,1379.763,2148.03,1379.763,2148.03z"/>
			</g>
			<g>
				
					<linearGradient id="SVGID_00000157288277153771920600000001889335589593349819_" gradientUnits="userSpaceOnUse" x1="2237.7683" y1="2406.9319" x2="1918.6488" y2="2089.3313" gradientTransform="matrix(-1 0 0 1 3331.1785 0)">
					<stop  offset="0" style="stop-color:#A22B25"/>
					<stop  offset="1" style="stop-color:#C0423C"/>
				</linearGradient>
				<path style="fill:url(#SVGID_00000157288277153771920600000001889335589593349819_);" d="M1377.566,2150.81
					c0.947,3.011-10.022,7.596-16.48-4.719c-0.225-5.903-3.816-31.19-0.288-35.999c18.785-25.611,55.205-57.714,55.205-57.714
					c6.155,6.073,1.084,12.04,1.084,12.04l-17.667,18.406c3.695,6.677,8.203,12.315,10.316,20.392
					c1.6,6.117,0.621,12.654-2.469,18.221c-3.101,5.587-7.332,12.85-11.332,18.534
					C1388.362,2150.729,1377.566,2150.81,1377.566,2150.81z"/>
				
					<linearGradient id="SVGID_00000013177312207245182530000004394744580244697495_" gradientUnits="userSpaceOnUse" x1="1942.6016" y1="2052.8667" x2="1952.859" y2="2157.7205" gradientTransform="matrix(-1 0 0 1 3331.1785 0)">
					<stop  offset="0" style="stop-color:#A22B25"/>
					<stop  offset="1" style="stop-color:#C0423C"/>
				</linearGradient>
				<path style="fill:url(#SVGID_00000013177312207245182530000004394744580244697495_);" d="M1391.691,2094.765l-16.1,13.649
					l-5.055,13.589l14.355,15.925c0,0,4.826-26.963,8.413-32.799C1396.891,2099.293,1395.031,2096.472,1391.691,2094.765z"/>
			</g>
			
				<linearGradient id="SVGID_00000148625703658125813610000010299803184924927166_" gradientUnits="userSpaceOnUse" x1="2240.7666" y1="2697.9695" x2="2475.5474" y2="2362.8943" gradientTransform="matrix(-1 0 0 1 3331.1785 0)">
				<stop  offset="0" style="stop-color:#4F52FF"/>
				<stop  offset="1" style="stop-color:#4042E2"/>
			</linearGradient>
			<path style="fill:url(#SVGID_00000148625703658125813610000010299803184924927166_);" d="M949.072,2397.194l-35.346-89.231
				c0,0-86.076,58.485-100.231,132.637c16.264,1.198,45.859,5.428,74.827,20.055
				C894.687,2425.641,949.072,2397.194,949.072,2397.194z"/>
			
				<linearGradient id="SVGID_00000072280773952421910200000013419318876870387612_" gradientUnits="userSpaceOnUse" x1="2474.7185" y1="2472.6223" x2="2262.0042" y2="2574.9634" gradientTransform="matrix(-1 0 0 1 3331.1785 0)">
				<stop  offset="0" style="stop-color:#A22B25"/>
				<stop  offset="1" style="stop-color:#C0423C"/>
			</linearGradient>
			<path style="fill:url(#SVGID_00000072280773952421910200000013419318876870387612_);" d="M1024.293,2481.157
				c0,0-96.641,54.617-129.25,7.981c-6.771-9.683-8.389-19.308-6.721-28.482c-28.968-14.627-58.563-18.858-74.827-20.055
				c-4.268,22.354-2.012,46.13,11.125,70.16c57.118,104.486,212.464-5.775,212.464-5.775L1024.293,2481.157z"/>
			<g>
				<polygon style="fill:#FFFFFF;" points="1072.442,2375.403 1255.703,2360.825 1235.175,2339.405 1062.922,2362.313 				"/>
				
					<linearGradient id="SVGID_00000126315114458729537160000016753582778588802455_" gradientUnits="userSpaceOnUse" x1="1547.8065" y1="1932.9597" x2="1392.5436" y2="2122.9832">
					<stop  offset="0" style="stop-color:#09005D"/>
					<stop  offset="1" style="stop-color:#1A0F91"/>
				</linearGradient>
				<path style="fill:url(#SVGID_00000126315114458729537160000016753582778588802455_);" d="M1018.432,2557.394l52.743-184.192
					c0.598-2.091,2.382-3.616,4.542-3.868c9.557-1.115,37.246-4.245,69.218-6.949c38.51-3.258,83.232-5.897,109.956-3.652
					c3.8,0.319,6.095,4.338,4.406,7.756c-15.197,30.746-77.708,155.811-109.012,196.781c-1.037,1.357-2.641,2.151-4.349,2.135
					l-122.374-1.138C1020.002,2564.233,1017.452,2560.817,1018.432,2557.394z"/>
				
					<linearGradient id="SVGID_00000069397420889751579480000002642926428709810359_" gradientUnits="userSpaceOnUse" x1="2032.2369" y1="2383.1501" x2="2228.9839" y2="2341.1033" gradientTransform="matrix(-1 0 0 1 3331.1785 0)">
					<stop  offset="0" style="stop-color:#09005D"/>
					<stop  offset="1" style="stop-color:#1A0F91"/>
				</linearGradient>
				<path style="fill:url(#SVGID_00000069397420889751579480000002642926428709810359_);" d="M1056.444,2358.997l177.904-22.095
					c2.352-0.292,4.68,0.698,6.101,2.593l0,0c0.964,1.285,0.179,3.131-1.415,3.329l-178.629,22.166L1056.444,2358.997z"/>
				
					<linearGradient id="SVGID_00000135657026573759975860000002391283916990134681_" gradientUnits="userSpaceOnUse" x1="2459.332" y1="2294.0439" x2="2286.2664" y2="2467.1096" gradientTransform="matrix(-1 0 0 1 3331.1785 0)">
					<stop  offset="0" style="stop-color:#09005D"/>
					<stop  offset="1" style="stop-color:#1A0F91"/>
				</linearGradient>
				<path style="fill:url(#SVGID_00000135657026573759975860000002391283916990134681_);" d="M1075.718,2369.334l-55.699,193.553
					l-19.9-12.206c-2.143-1.315-3.129-3.911-2.398-6.317l55.996-184.241c0.35-1.151,1.666-1.695,2.727-1.126L1075.718,2369.334z"/>
				
					<linearGradient id="SVGID_00000153684879135507070540000013031579350117373837_" gradientUnits="userSpaceOnUse" x1="2350.2498" y1="2461.3215" x2="2247.6345" y2="2519.0049" gradientTransform="matrix(-1 0 0 1 3331.1785 0)">
					<stop  offset="0" style="stop-color:#A22B25"/>
					<stop  offset="1" style="stop-color:#C0423C"/>
				</linearGradient>
				<path style="fill:url(#SVGID_00000153684879135507070540000013031579350117373837_);" d="M1001.662,2526.149
					c-3.334-1.214,5.581-42.164,12.669-51.38c6.779-8.815,10.456-21.949,29.596-18.887c19.14,3.063,41.717,11.125,41.717,11.125
					s-1.141,13.962-15.687,9.457l9.02,6.98c0,0-1.289,11.179-13.576,5.207l8.39,9.257c0,0-4.206,7.056-14.317,3.292
					C1014.086,2484.304,1027.298,2529.787,1001.662,2526.149z"/>
			</g>
			
				<linearGradient id="SVGID_00000092441449825244415730000013094595100789807769_" gradientUnits="userSpaceOnUse" x1="1018.8295" y1="2313.3718" x2="1060.5419" y2="2132.6179">
				<stop  offset="0" style="stop-color:#A22B25"/>
				<stop  offset="1" style="stop-color:#C0423C"/>
			</linearGradient>
			<path style="fill:url(#SVGID_00000092441449825244415730000013094595100789807769_);" d="M1014.216,2208.952l-29.322,84.796
				c-0.486,1.405,0.092,2.96,1.392,3.679c7.993,4.419,36.789,17.193,71.492-4.809c3.615-2.292,6.076-6.03,6.625-10.275l9.495-73.392
				H1014.216z"/>
			<g>
				
					<linearGradient id="SVGID_00000168834802662494408290000002156940624490408371_" gradientUnits="userSpaceOnUse" x1="2186.5337" y1="2277.5837" x2="2086.239" y2="2390.0354" gradientTransform="matrix(-1 0 0 1 3331.1785 0)">
					<stop  offset="0" style="stop-color:#A22B25"/>
					<stop  offset="1" style="stop-color:#C0423C"/>
				</linearGradient>
				<path style="fill:url(#SVGID_00000168834802662494408290000002156940624490408371_);" d="M1078.015,2130.428
					c0,0,32.198,60.61,28.071,85.093c-4.127,24.483-44.032,22.725-78.878,2.841l-24.35-65.445L1078.015,2130.428z"/>
				
					<linearGradient id="SVGID_00000052062307606370195670000009843740202349653439_" gradientUnits="userSpaceOnUse" x1="-5978.4209" y1="-1475.0447" x2="-5950.5459" y2="-1316.0533" gradientTransform="matrix(0.746 -0.6659 0.6659 0.746 6387.293 -803.1727)">
					<stop  offset="0" style="stop-color:#09005D"/>
					<stop  offset="1" style="stop-color:#1A0F91"/>
				</linearGradient>
				<path style="fill:url(#SVGID_00000052062307606370195670000009843740202349653439_);" d="M1028.748,2186.222
					c1.417-0.628,1.939-2.36,1.09-3.656c-2.579-3.94-7.415-11.98-8.958-19.019c0,0-5.788-3.707,14.732-8.619
					c20.521-4.912,51.122-12.535,57.554-30.002c6.271-17.029-10.207-59.856-36.494-25.733c-1,1.299-2.96,1.327-3.959,0.028
					c-4.31-5.609-15.639-17.251-31.369-10.193c-14.72,6.605-16.379,17.391-16.176,22.828c0.059,1.599-1.37,2.843-2.942,2.543
					c-7.442-1.419-25.302-2.638-33.638,15.682c-6.866,15.091-2.404,23.634,1.661,27.811c1.317,1.354,0.74,3.583-1.066,4.135
					c-4.891,1.498-11.207,5.645-10.575,17.104c0.874,15.842,18.586,14.446,23.63,13.725c0.826-0.118,1.659,0.165,2.218,0.784
					c4.324,4.785,23.806,25.103,44.891,27.552c1.826,0.212,3.24-1.591,2.643-3.329l-9.126-26.526
					c-0.424-1.232,0.166-2.583,1.357-3.111L1028.748,2186.222z"/>
				
					<linearGradient id="SVGID_00000110439259383869687190000008345175948304149639_" gradientUnits="userSpaceOnUse" x1="2282.73" y1="2182.1685" x2="2145.9644" y2="2122.9033" gradientTransform="matrix(-1 0 0 1 3331.1785 0)">
					<stop  offset="0" style="stop-color:#A22B25"/>
					<stop  offset="1" style="stop-color:#C0423C"/>
				</linearGradient>
				<path style="fill:url(#SVGID_00000110439259383869687190000008345175948304149639_);" d="M1032.417,2189.987
					c0,0-22.925-15.729-24.6-2.483c-1.675,13.246,20.645,19.187,31.699,14.248L1032.417,2189.987z"/>
			</g>
		</g>
		<g>
			<g>
				<g>
					<path style="fill:#91B3FA;" d="M1796.461,3144.854l1383.834,0.001v-276.974l-1383.834,0.002
						C1826.081,2867.884,1826.081,3144.854,1796.461,3144.854z"/>
					
						<linearGradient id="SVGID_00000070809006853848973430000000784586516802488199_" gradientUnits="userSpaceOnUse" x1="2681.5596" y1="254.101" x2="2598.1333" y2="1686.2314">
						<stop  offset="0" style="stop-color:#4F52FF"/>
						<stop  offset="1" style="stop-color:#4042E2"/>
					</linearGradient>
					<path style="fill:url(#SVGID_00000070809006853848973430000000784586516802488199_);" d="M3180.296,3075.545V2948.79
						c0-44.683-27.347-80.906-61.081-80.906H1802.297c-26.529,0-48.034-21.506-48.034-48.035v0c0-8.061,6.534-14.594,14.594-14.594
						h1439.289c33.007,0,85.413,51.896,85.413,115.911v177.028c0,60.358-50.876,109.287-81.997,109.287H1776.428
						c-12.241,0-22.166-9.924-22.166-22.166c0-22.346,18.115-40.461,40.461-40.461H3127.97
						C3156.868,3144.854,3180.296,3113.823,3180.296,3075.545z"/>
				</g>
				
					<linearGradient id="SVGID_00000046328487701368346580000017707325554684487584_" gradientUnits="userSpaceOnUse" x1="1840.9055" y1="2924.7117" x2="3145.3916" y2="2924.7117">
					<stop  offset="0" style="stop-color:#DAE3FE"/>
					<stop  offset="1" style="stop-color:#E9EFFD"/>
				</linearGradient>
				<path style="fill:url(#SVGID_00000046328487701368346580000017707325554684487584_);" d="M3141.916,2928.188H1844.382
					c-1.921,0-3.476-1.555-3.476-3.476s1.555-3.476,3.476-3.476h1297.534c1.921,0,3.476,1.555,3.476,3.476
					S3143.837,2928.188,3141.916,2928.188z"/>
				
					<linearGradient id="SVGID_00000170966053152100452100000008086200672978874504_" gradientUnits="userSpaceOnUse" x1="1840.9055" y1="2965.8232" x2="3145.3916" y2="2965.8232">
					<stop  offset="0" style="stop-color:#DAE3FE"/>
					<stop  offset="1" style="stop-color:#E9EFFD"/>
				</linearGradient>
				<path style="fill:url(#SVGID_00000170966053152100452100000008086200672978874504_);" d="M3141.916,2969.299H1844.382
					c-1.921,0-3.476-1.555-3.476-3.476c0-1.921,1.555-3.476,3.476-3.476h1297.534c1.921,0,3.476,1.555,3.476,3.476
					C3145.392,2967.745,3143.837,2969.299,3141.916,2969.299z"/>
				
					<linearGradient id="SVGID_00000024689519864194591790000005964497761481981327_" gradientUnits="userSpaceOnUse" x1="1840.9055" y1="3006.9351" x2="3145.3916" y2="3006.9351">
					<stop  offset="0" style="stop-color:#DAE3FE"/>
					<stop  offset="1" style="stop-color:#E9EFFD"/>
				</linearGradient>
				<path style="fill:url(#SVGID_00000024689519864194591790000005964497761481981327_);" d="M3141.916,3010.411H1844.382
					c-1.921,0-3.476-1.555-3.476-3.476c0-1.921,1.555-3.476,3.476-3.476h1297.534c1.921,0,3.476,1.555,3.476,3.476
					C3145.392,3008.856,3143.837,3010.411,3141.916,3010.411z"/>
				
					<linearGradient id="SVGID_00000088815338214048561600000000285851681362846893_" gradientUnits="userSpaceOnUse" x1="1840.9055" y1="3048.0466" x2="3145.3916" y2="3048.0466">
					<stop  offset="0" style="stop-color:#DAE3FE"/>
					<stop  offset="1" style="stop-color:#E9EFFD"/>
				</linearGradient>
				<path style="fill:url(#SVGID_00000088815338214048561600000000285851681362846893_);" d="M3141.916,3051.523H1844.382
					c-1.921,0-3.476-1.555-3.476-3.476s1.555-3.476,3.476-3.476h1297.534c1.921,0,3.476,1.555,3.476,3.476
					S3143.837,3051.523,3141.916,3051.523z"/>
				
					<linearGradient id="SVGID_00000069358276306867825880000013816882711804398995_" gradientUnits="userSpaceOnUse" x1="1840.9055" y1="3089.1582" x2="3145.3916" y2="3089.1582">
					<stop  offset="0" style="stop-color:#DAE3FE"/>
					<stop  offset="1" style="stop-color:#E9EFFD"/>
				</linearGradient>
				<path style="fill:url(#SVGID_00000069358276306867825880000013816882711804398995_);" d="M3141.916,3092.634H1844.382
					c-1.921,0-3.476-1.555-3.476-3.476s1.555-3.476,3.476-3.476h1297.534c1.921,0,3.476,1.555,3.476,3.476
					S3143.837,3092.634,3141.916,3092.634z"/>
			</g>
			<g>
				<g>
					
						<linearGradient id="SVGID_00000113318938936682045890000012031495919698472325_" gradientUnits="userSpaceOnUse" x1="2635.5547" y1="2267.3208" x2="2580.7693" y2="4060.2576">
						<stop  offset="0" style="stop-color:#4F52FF"/>
						<stop  offset="1" style="stop-color:#4042E2"/>
					</linearGradient>
					<path style="fill:url(#SVGID_00000113318938936682045890000012031495919698472325_);" d="M2073.69,2828.79h1097.723
						c7.85,0,14.214-6.364,14.214-14.214v-243.408c0-7.85-6.364-14.214-14.214-14.214H2073.69c-7.85,0-14.214,6.364-14.214,14.214
						v243.408C2059.477,2822.426,2065.84,2828.79,2073.69,2828.79z"/>
					<path style="fill:#7D97F4;" d="M2951.231,2797.548h81.951c13.903,0,25.173-11.27,25.173-25.173v-159.006
						c0-13.903-11.27-25.173-25.173-25.173h-81.951c-13.903,0-25.173,11.271-25.173,25.173v159.006
						C2926.058,2786.278,2937.329,2797.548,2951.231,2797.548z"/>
					<path style="fill:#7D97F4;" d="M2869.716,2797.548h24.129c7.044,0,12.755-5.711,12.755-12.755v-183.841
						c0-7.045-5.711-12.756-12.756-12.756h-24.129c-7.044,0-12.755,5.711-12.755,12.755v183.841
						C2856.96,2791.837,2862.671,2797.548,2869.716,2797.548z"/>
				</g>
			</g>
		</g>
		<g>
			
				<linearGradient id="SVGID_00000120548832738395780130000012577702229818888892_" gradientUnits="userSpaceOnUse" x1="5154.334" y1="1848.1064" x2="5669.6069" y2="2538.5728" gradientTransform="matrix(1 0 0 1 -2792.2854 0)">
				<stop  offset="0" style="stop-color:#09005D"/>
				<stop  offset="1" style="stop-color:#1A0F91"/>
			</linearGradient>
			<path style="fill:url(#SVGID_00000120548832738395780130000012577702229818888892_);" d="M2434.549,2011.778
				c0,0,0.036,11.054,35.735,10.363c19.905-0.385,56.817-4.729,77.672,26.411c10.766,16.077,30.378,23.416,48.777,17.425
				c45.827-14.921,122.518-25.874,170.233,42.698c36.42,52.339,18.455,88.201-7.977,110.801
				c-19.413,16.6-23.275,45.567-7.521,65.673c15.109,19.285,21.2,47.313-6.079,85.654c-61.131,85.917-218.917-20.213-218.917-20.213
				l-147.335-249.911L2434.549,2011.778z"/>
			<path style="fill:#BDD0FB;" d="M2730.371,2192.048c-0.455,0-0.91-0.105-1.351-0.339c-0.214-0.109-0.295-0.374-0.183-0.584
				c0.109-0.214,0.374-0.295,0.584-0.183c1.962,1.012,4.114-1.466,5.068-3.106c12.906-22.207,10.123-53.227-6.772-75.427
				c-10.116-13.296-23.759-22.282-38.413-25.3c-10.415-2.146-21.114-1.283-31.189-0.221c-17.058,1.809-34.227,4.478-51.034,7.933
				c-1.365,0.282-2.729,0.567-4.094,0.855c-9.878,2.074-20.096,4.216-30.347,4.247c-0.058,0-0.119,0-0.177,0
				c-13.137,0-24.645-3.815-32.418-10.757c-4.844-4.325-8.439-9.946-11.915-15.381c-4.179-6.535-8.5-13.29-14.95-17.601
				c-0.2-0.133-0.255-0.401-0.119-0.601c0.133-0.204,0.401-0.255,0.601-0.119c6.602,4.409,10.971,11.243,15.198,17.852
				c3.445,5.387,7.006,10.958,11.762,15.204c7.617,6.796,18.918,10.533,31.841,10.533c0.058,0,0.115,0,0.177,0
				c10.16-0.031,20.333-2.166,30.171-4.23c1.365-0.285,2.729-0.574,4.094-0.852c16.837-3.462,34.034-6.137,51.122-7.947
				c10.133-1.076,20.907-1.938,31.454,0.234c14.861,3.058,28.684,12.159,38.929,25.619c17.102,22.475,19.909,53.889,6.833,76.391
				C2734.051,2190.32,2732.208,2192.048,2730.371,2192.048z"/>
			<path style="fill:#BDD0FB;" d="M2730.585,2181.348c-0.027,0-0.054-0.003-0.054-0.003c-0.261-0.048-0.418-0.275-0.374-0.512
				c2.77-14.695,1.643-28.375-3.266-39.567c-5.723-13.045-16.983-22.632-29.387-25.015c-0.238-0.048-0.39-0.275-0.346-0.509
				c0.044-0.234,0.258-0.373,0.509-0.346c12.682,2.437,24.183,12.217,30.018,25.524c4.98,11.352,6.131,25.208,3.327,40.076
				C2730.972,2181.202,2730.789,2181.348,2730.585,2181.348z"/>
			
				<linearGradient id="SVGID_00000098179553279997408560000007045592776485017489_" gradientUnits="userSpaceOnUse" x1="15290.2109" y1="2509.8269" x2="14981.6553" y2="2685.946" gradientTransform="matrix(-1 0 0 1 17273.8203 0)">
				<stop  offset="0" style="stop-color:#FEBBBA"/>
				<stop  offset="1" style="stop-color:#FF928E"/>
			</linearGradient>
			<path style="fill:url(#SVGID_00000098179553279997408560000007045592776485017489_);" d="M2030.52,2796.942
				c0.364-0.14,196.077-342.881,222.524-375.136c4.449-5.425,11.335-8.187,18.302-7.357l54.627,6.51l64.175,138.834l-106.914-62.265
				c10.579,73.166-126.766,181.901-173.87,221.576c-4.781,4.027-5.173,11.239-0.856,15.758l18.806,19.686
				c-30.873,31.294-66.499,51.388-106.707,60.682L2030.52,2796.942z"/>
			
				<linearGradient id="SVGID_00000133486951970432040350000001284803327599747252_" gradientUnits="userSpaceOnUse" x1="-5575.2729" y1="-2156.2693" x2="-5598.96" y2="-1793.0724" gradientTransform="matrix(0.8974 -0.4412 0.4412 0.8974 7978.5405 2161.1482)">
				<stop  offset="0" style="stop-color:#09005D"/>
				<stop  offset="1" style="stop-color:#1A0F91"/>
			</linearGradient>
			<path style="fill:url(#SVGID_00000133486951970432040350000001284803327599747252_);" d="M2116.437,2743.923
				c0,0,12.001,3.877,16.065,14.567c1.944,5.115-0.152,10.907-4.6,14.094c-19.762,14.158-84.951,59.87-115.033,68.823
				c-2.466,0.734-4.812-1.498-4.257-4.01c1.544-6.989,6.537-20.944,22.624-41.373l-1.443,2.919
				c-1.826,3.695,2.197,7.542,5.786,5.515C2055.7,2793.1,2096.682,2768.24,2116.437,2743.923z"/>
			
				<linearGradient id="SVGID_00000017480105153599257840000009357737694706280090_" gradientUnits="userSpaceOnUse" x1="2303.3652" y1="2649.6663" x2="2676.1563" y2="2558.1179">
				<stop  offset="0" style="stop-color:#FEBBBA"/>
				<stop  offset="1" style="stop-color:#FF928E"/>
			</linearGradient>
			<path style="fill:url(#SVGID_00000017480105153599257840000009357737694706280090_);" d="M2106.751,2881.063
				c0.328-0.211,29.692-70.958,30.02-71.167c26.923-163.917,92.609-304.301,111.981-341.24c3.259-6.213,9.443-10.312,16.435-10.909
				l54.814-4.68l90.944,122.974l-117.302-39.34c25.167,69.511-87.331,203.791-125.43,252.178
				c-3.866,4.911-2.791,12.053,2.351,15.605l22.4,15.473c-23.901,36.894-54.722,63.783-92.218,81.021L2106.751,2881.063z"/>
			
				<linearGradient id="SVGID_00000079468342019296207220000011341000395277634202_" gradientUnits="userSpaceOnUse" x1="-4416.5879" y1="-3961.8496" x2="-4440.2734" y2="-3598.6763" gradientTransform="matrix(0.7895 -0.6137 0.6137 0.7895 7996.1299 3191.1018)">
				<stop  offset="0" style="stop-color:#09005D"/>
				<stop  offset="1" style="stop-color:#1A0F91"/>
			</linearGradient>
			<path style="fill:url(#SVGID_00000079468342019296207220000011341000395277634202_);" d="M2180.161,2811.753
				c0,0,12.538,1.368,18.681,11.014c2.939,4.615,2.059,10.712-1.652,14.732c-16.489,17.865-71.076,75.824-98.725,90.679
				c-2.266,1.218-5.015-0.493-4.98-3.065c0.097-7.156,2.163-21.833,13.783-45.096l-0.823,3.151c-1.041,3.988,3.677,6.941,6.782,4.23
				C2130.633,2872.204,2165.736,2839.564,2180.161,2811.753z"/>
			<g>
				
					<linearGradient id="SVGID_00000155842533193325585390000002332007346289342091_" gradientUnits="userSpaceOnUse" x1="-9075.4805" y1="12559.707" x2="-9941.1367" y2="13102.4609" gradientTransform="matrix(-1 0 0 1 9442.1201 0)">
					<stop  offset="0" style="stop-color:#09005D"/>
					<stop  offset="1" style="stop-color:#1A0F91"/>
				</linearGradient>
				<path style="fill:url(#SVGID_00000155842533193325585390000002332007346289342091_);" d="M2576.578,2427.167
					c0,0,49.586,73.754,53.656,107.397c4.069,33.643-13.711,45.277-65.612,49.568c-154.446,12.767-230.583-33.521-230.583-33.521
					c-10.565-67.364-18.083-84.501-106.321-121.128c0,0,111.606,8.861,134.067,0.144
					C2384.247,2420.911,2576.578,2427.167,2576.578,2427.167z"/>
			</g>
			<g>
				
					<linearGradient id="SVGID_00000049926905223323253300000003098874884416853380_" gradientUnits="userSpaceOnUse" x1="2308.7363" y1="2117.4446" x2="2582.5554" y2="2434.1519">
					<stop  offset="0" style="stop-color:#4F52FF"/>
					<stop  offset="1" style="stop-color:#4042E2"/>
				</linearGradient>
				<path style="fill:url(#SVGID_00000049926905223323253300000003098874884416853380_);" d="M2442.477,2417.404
					c0,0-57.744-54.984-86.168-91.402c-15.365-19.686-20.19-45.602-13.084-69.542c12.977-43.72,36.039-89.002,38.143-96.05
					c3.224-10.802,67.969-10.353,67.969-10.353s127.407,82.688,177.465,222.756l-56.219,17.502c0,0-33.266-55.81-66.135-91.292
					c0,0,56.875,75.133,58.878,105.891L2442.477,2417.404z"/>
				
					<linearGradient id="SVGID_00000142889771834505600040000006728239140440062086_" gradientUnits="userSpaceOnUse" x1="-6458.2988" y1="2184.1379" x2="-6479.2627" y2="2049.6177" gradientTransform="matrix(1 0 0 1 8877.3564 0)">
					<stop  offset="0" style="stop-color:#FEBBBA"/>
					<stop  offset="1" style="stop-color:#FF928E"/>
				</linearGradient>
				<path style="fill:url(#SVGID_00000142889771834505600040000006728239140440062086_);" d="M2373.538,2100.037
					c0.676,2.246,17.575,58.268,18.896,59.431c1.322,1.163,37.06,3.085,53.882-8.412l-34.334-75.954L2373.538,2100.037z"/>
				
					<linearGradient id="SVGID_00000143595286553307251310000001210261552764427137_" gradientUnits="userSpaceOnUse" x1="-6319.5098" y1="2408.3096" x2="-6012.1421" y2="2408.3096" gradientTransform="matrix(1 0 0 1 8877.3564 0)">
					<stop  offset="0" style="stop-color:#FEBBBA"/>
					<stop  offset="1" style="stop-color:#FF928E"/>
				</linearGradient>
				<path style="fill:url(#SVGID_00000143595286553307251310000001210261552764427137_);" d="M2332.457,2439.101l43.388-47.208
					l50.109,13.493c0,0,58.419,9.051,91.855,0c33.436-9.051,33.436-9.051,33.436-9.051l75.557-23.522l11.867,33.537
					c3.013,8.515-0.015,17.968-7.377,23.2c-6.537,4.645-14.199,9.75-19.083,11.886c-9.95,4.353-229.213,1.376-229.213,1.376
					L2332.457,2439.101z"/>
			</g>
			<g>
				
					<linearGradient id="SVGID_00000042720122851570141650000007960854613793226429_" gradientUnits="userSpaceOnUse" x1="-6439.6035" y1="2144.2493" x2="-6600.397" y2="2188.3184" gradientTransform="matrix(0.9988 -0.0494 0.0494 0.9988 8835.8877 -55.0328)">
					<stop  offset="0" style="stop-color:#4F52FF"/>
					<stop  offset="1" style="stop-color:#4042E2"/>
				</linearGradient>
				<path style="fill:url(#SVGID_00000042720122851570141650000007960854613793226429_);" d="M2476.079,2457.785
					c-0.152,0.008-0.305,0.011-0.458,0.01l-199.569-0.218c-4.933-0.004-8.928-4.008-8.923-8.942
					c0.005-4.935,4.023-9.012,8.943-8.923l199.569,0.218c4.933,0.004,8.928,4.008,8.923,8.941
					C2484.557,2453.652,2480.799,2457.552,2476.079,2457.785z"/>
				
					<linearGradient id="SVGID_00000039821978904079166930000002013496267286209937_" gradientUnits="userSpaceOnUse" x1="-6585.0454" y1="2300.886" x2="-6699.1353" y2="2421.4722" gradientTransform="matrix(1 0 0 1 8877.3564 0)">
					<stop  offset="0" style="stop-color:#09005D"/>
					<stop  offset="1" style="stop-color:#1A0F91"/>
				</linearGradient>
				<path style="fill:url(#SVGID_00000039821978904079166930000002013496267286209937_);" d="M2096.648,2276.589h166.202
					c12.261,0,23.42,7.075,28.65,18.165l76.835,162.925h-206.545c-7.901,0-15-4.828-17.905-12.176l-59.582-150.762
					C2080.862,2286.029,2087.281,2276.589,2096.648,2276.589z"/>
				<path style="fill:#7D97F4;" d="M2213.739,2360.125c3.602,11.19,0.941,22.057-5.943,24.273
					c-6.884,2.216-15.384-5.059-18.986-16.249c-3.601-11.19-0.941-22.057,5.943-24.273
					C2201.637,2341.661,2210.137,2348.936,2213.739,2360.125z"/>
			</g>
			<g>
				
					<linearGradient id="SVGID_00000051351787071571416440000016075646317186370699_" gradientUnits="userSpaceOnUse" x1="1376.0767" y1="-1655.8611" x2="1471.7487" y2="-1884.3191" gradientTransform="matrix(0.7885 -0.615 0.615 0.7885 858.4404 -1124.1753)">
					<stop  offset="0" style="stop-color:#FEBBBA"/>
					<stop  offset="1" style="stop-color:#FF928E"/>
				</linearGradient>
				<path style="fill:url(#SVGID_00000051351787071571416440000016075646317186370699_);" d="M2341.611,2023.988
					c0,0-15.168,27.189-5.057,71.862c10.112,44.674,33.363,50.807,49.403,41.628c16.04-9.179,37.365-26.317,43.717-65.224
					C2436.026,2033.347,2362.181,1989.739,2341.611,2023.988z"/>
				
					<linearGradient id="SVGID_00000000942068465330867410000005869940825951267745_" gradientUnits="userSpaceOnUse" x1="5078.3159" y1="1904.8362" x2="5593.5879" y2="2595.301" gradientTransform="matrix(1 0 0 1 -2792.2854 0)">
					<stop  offset="0" style="stop-color:#09005D"/>
					<stop  offset="1" style="stop-color:#1A0F91"/>
				</linearGradient>
				<path style="fill:url(#SVGID_00000000942068465330867410000005869940825951267745_);" d="M2400.728,2066.769
					c0,0-20.228-61.12-63.059-28.624l-4.537,14.751c0,0-36.228-14.378-20.57-46.943c15.659-32.564,53.688-45.414,91.376-19.494
					c37.687,25.921,57.499,47.497,52.259,78.047c-5.241,30.551-27.241,17.703-27.241,17.703s-2.16-23.067-12.59-28.177
					c-10.429-5.108-11.919,12.036-11.919,12.036L2400.728,2066.769z"/>
				
					<linearGradient id="SVGID_00000152976871598774930010000000786550629644772790_" gradientUnits="userSpaceOnUse" x1="1411.6935" y1="-1640.949" x2="1507.3657" y2="-1869.4077" gradientTransform="matrix(0.7885 -0.615 0.615 0.7885 858.4404 -1124.1753)">
					<stop  offset="0" style="stop-color:#FEBBBA"/>
					<stop  offset="1" style="stop-color:#FF928E"/>
				</linearGradient>
				<path style="fill:url(#SVGID_00000152976871598774930010000000786550629644772790_);" d="M2409.636,2075.393
					c0,0-10.583-31.357,8.576-30.524c19.158,0.833,8.39,30.046,3.492,40.607L2409.636,2075.393z"/>
			</g>
		</g>
	</g>
</g>
</svg>
